<svg aria-hidden="true" style="position: absolute; width: 0; height: 0; overflow: hidden;" version="1.1" xmlns="http://www.w3.org/2000/svg" xmlns:xlink="http://www.w3.org/1999/xlink">
<defs>
<symbol id="icon-rozwijanka" viewBox="0 0 32 32">
<path fill="#ff9292" style="fill: var(--color1, #ff9292)" d="M25.494 18.863c-0.031-0.212-0.331-1.856-0.661-1.387s-0.469 1.408-0.107 1.707c0.363 0.299 0.839 0.162 0.768-0.32z"></path>
<path fill="#ff9292" style="fill: var(--color1, #ff9292)" d="M23.643 13.32c-0.21-0.061-5.523-2.149-5.975 0.404s0.763 7.417 3.509 6.38c2.544-0.96 4.84-6.093 2.466-6.784z"></path>
<path fill="#1dd8d8" style="fill: var(--color2, #1dd8d8)" d="M15.234 5.069c-0.469-0.18-8.617-4.002-9.277 1.759s0.033 7.319 4.223 5.916c4.19-1.403 10.094-5.737 5.054-7.675z"></path>
<path fill="#ffc364" style="fill: var(--color3, #ffc364)" d="M6.16 5.667c0.201 0.141 0.782 0.274 1.068 0.139s0.597-0.4 1.123-0.085c0.982 0.588 1.831-0.014 2.197 0.755 0.141 0.295 0.112 0.681 0.095 0.999-0.008 0.158-0.040 0.093 0.051 0.411 0.017 0.060-0.1 0.063-0.135 0.010-0.045-0.070-0.218-0.037-0.294-0.083-0.183-0.113-0.272-0.206-0.044 0.184 0.323 0.552 0.796 1.425 1.196 1.562s-2.334 3.726-1.331 5.339c1.003 1.614-0.933-1.522-1.221-2.706s-0.94-1.526-1.328-2.672-0.632-1.776-1.28-2.12-0.798-0.575-0.804-0.961-0.255-0.539-0.115-0.806 0.481-0.14 0.583-0.044 0.102-0.019 0.241 0.079z"></path>
<path fill="#ffc364" style="fill: var(--color3, #ffc364)" d="M22.021 11.012c0 0-1.326-1.453-2.855 0.1s-1.311 2.382-2.015 2.574-4.368 0.704-4.28 1.52c0.088 0.816 3.528-0.648 4.064-1.12s1.552-0.563 2.11-0.135 1.060 0.694 1.047 1.17c-0.013 0.477 0.601 1.343 1.517 2.339s1.597 1.866 1.592 2.105-0.056 1.052-0.177 1.222-0.646 0.399-0.758 0.506c-0.112 0.107-0.219 0.261-0.080 0.219s0.272-0.127 0.221-0.059c-0.051 0.068-0.209 0.173-0.042 0.225s0.455 0.011 0.535-0.051c0.080-0.062-0.050 0.142 0.159 0.181s0.365-0.13 0.474-0.388 0.303-0.915 0.358-1.43c0.055-0.515 0.044-0.535 0.055-0.515s0.436 0.447 0.51 0.783 0.181 1.48 0.125 1.617c-0.056 0.137-0.163 0.112-0.36 0.233s-0.448 0.423-0.294 0.713c0.155 0.29 0.151-0.051 0.246 0.071s0.368 0.159 0.491 0.080 0.367 0.082 0.506-0.114 0.091-1.070 0.086-1.129c-0.005-0.059-0.218-2.012-0.226-2.285s0.072-0.545-0.456-0.977-1.648-1.496-1.68-2.824c-0.032-1.328-0.235-4.304-0.875-4.635z"></path>
<path fill="#1dd8d8" style="fill: var(--color2, #1dd8d8)" d="M5.432 6.074c0-0.002-0-0.005-0-0.008 0-0.042 0.006-0.187 0.152-0.189 0.157-0.003 0.344-0.072 0.379-0.192s-0.195-0.248-0.48-0.171-0.187 0.452-0.134 0.547 0.079 0.072 0.084 0.011z"></path>
<path fill="#ff9292" style="fill: var(--color1, #ff9292)" d="M27.655 14.012c-0.060-0.075-0.317-0.614-1.31-0.374s-1.087 1.504-0.4 2.184c0.687 0.68 1.547 0.026 1.841-0.479s0.149-0.982-0.13-1.332z"></path>
<path fill="#ff9292" style="fill: var(--color1, #ff9292)" d="M26.272 15.85c0.027 0.032 0.175 0.525 1.163 0.427 0.752-0.075 1.536-0.283 2.171-0.117 1.005 0.262 1.325 0.827 1.506 1.234 0 0-0.37-1.095-1.735-1.143s-2.475 0.517-3.301-0.373c-0.827-0.891 0.197-0.027 0.197-0.027z"></path>
<path fill="#ffc364" style="fill: var(--color3, #ffc364)" d="M12.4 15.6c-0.257-0.481-0.449-0.709-1.185-0.251s-0.197 0.89-0.064 2.043 0.44 3.877 0.32 3.997-0.756 0.628-0.87 0.883-0.091 0.286 0.029 0.237c0.12-0.049-0.007-0.031 0.185 0.081s0.816 0.168 1.016-0.184 0.206-2.097 0.206-2.097l0.363-4.71z"></path>
<path fill="#ffc364" style="fill: var(--color3, #ffc364)" d="M8.259 18.442c0 0-0.58-0.276-0.756 0.137s-0.066 1.294 0.059 1.509c0.125 0.215-0.008-0.284 0.165-0.027s0.414 0.401 0.532 0.082c0.117-0.319 0.116-0.617-0.060-0.804s0.072-0.244 0.016-0.484 0.044-0.413 0.044-0.413z"></path>
<path fill="#ffc364" style="fill: var(--color3, #ffc364)" d="M16.96 10.291c0 0-2.281 0.434-3.429-0.185s-2.236 0.565-0.716 1.557 3.857-0.761 4.145-1.372z"></path>
<path fill="#ffc364" style="fill: var(--color3, #ffc364)" d="M9.753 13.793c0 0 0.599-0.84 2.315-1.080s3.346-1.103 3.795-1.419-2.202-1.010-2.333-1.187-0.709-1.147-2.184-0.578-2.219 3.017-1.595 4.265z"></path>
<path fill="#1dd8d8" style="fill: var(--color2, #1dd8d8)" d="M18.699 8.756c0.262-0.746-0.176-1.829-0.753-0.931s-0.74 1.736-0.18 1.716 0.933-0.785 0.933-0.785z"></path>
<path fill="#fff" style="fill: var(--color4, #fff)" d="M6.088 6.844c-0.028-0.030 0.139 0.203 0.525 0.203s0.725 0.176 0.651 0.264-0.261 0.061-0.384-0.061-0.752-0.363-0.792-0.405z"></path>
<path fill="#000" style="fill: var(--color5, #000)" d="M10.898 24.413c0.151 0.102 0.313 0.273 0.295 0.514-0.017 0.233-0.157 0.402-0.287 0.541-0.378 0.407-0.942 0.722-1.474 0.965-0.387 0.176-0.687 0.292-1.1 0.387-0.058 0.25-0.111 0.534-0.131 0.786-0.005 0.072-0.004 0.316-0.018 0.315-0.029-0.001-0.045-0.254-0.046-0.328-0.004-0.245 0.030-0.51 0.074-0.748-0.147 0.028-0.315 0.053-0.458 0.028-0.058-0.010-0.070-0.017-0.001-0.017 0.16 0.001 0.322-0.034 0.471-0.072 0.091-0.471 0.227-0.92 0.373-1.372 0.090-0.279 0.199-0.549 0.26-0.846-0.123 0.117-0.813 1.038-0.838 1.019-0.031-0.023 0.411-0.682 0.543-0.86 0.070-0.095 0.142-0.196 0.233-0.277 0.039-0.035 0.17-0.088 0.191 0.029 0.003 0.012 0.005 0.023 0.005 0.032 0.006 0.113-0.030 0.207-0.056 0.298-0.18 0.649-0.424 1.287-0.583 1.943 0.38-0.111 0.66-0.228 1.029-0.406 0.423-0.205 0.863-0.459 1.215-0.762 0.138-0.119 0.273-0.252 0.369-0.407 0.051-0.083 0.094-0.167 0.101-0.279 0.012-0.185-0.111-0.302-0.226-0.379-0.401-0.27-0.957-0.37-1.573-0.319-0.655 0.054-1.206 0.238-1.676 0.459-0.376 0.177-0.716 0.386-0.954 0.675-0.083 0.101-0.179 0.221-0.2 0.369-0.020 0.152 0.089 0.211 0.208 0.244 0.285 0.076 0.536 0.028 0.776-0.006 0.12-0.017 0.336-0.072 0.338-0.058 0.001 0.004-0.045 0.026-0.088 0.037-0.284 0.069-0.458 0.113-0.735 0.124-0.279 0.011-0.631-0.064-0.59-0.368 0.014-0.111 0.063-0.202 0.115-0.284 0.238-0.377 0.626-0.631 1.061-0.843 0.477-0.232 1.039-0.424 1.71-0.481 0.657-0.057 1.239 0.057 1.668 0.347zM8.863 24.488c0 0-0 0 0 0.001s-0-0.001-0-0.001z"></path>
<path fill="#000" style="fill: var(--color5, #000)" d="M11.601 26.648c0.006 0.019 0.012 0.039 0.016 0.059 0.048 0.221-0.137 0.327-0.281 0.383-0.025 0.011-0.058 0.024-0.098 0.022-0.076 0.003-0.089-0.096-0.054-0.15 0.056-0.098 0.142-0.183 0.215-0.261 0.019-0.020 0.037-0.040 0.056-0.059-0.064-0.147-0.169-0.268-0.215-0.435-0.081-0.293 0.101-0.535 0.25-0.672 0.086-0.080 0.196-0.17 0.339-0.177 0.090-0.005 0.148 0.052 0.14 0.143-0.004 0.053-0.021 0.075-0.025 0.074-0.005-0.001-0.014-0.095-0.026-0.118-0.072-0.128-0.315 0.103-0.359 0.149-0.117 0.122-0.268 0.326-0.197 0.567 0.041 0.139 0.127 0.244 0.191 0.367 0.157-0.163 0.283-0.286 0.348-0.352 0.095-0.097 0.146-0.148 0.154-0.142 0.027 0.020-0.23 0.333-0.454 0.603zM11.288 27.037c0.002-0.002 0.004-0.005 0.004-0.007-0.002 0.003-0.003 0.005-0.004 0.007zM11.488 26.784c-0.054 0.065-0.102 0.123-0.137 0.168 0.070-0.035 0.129-0.092 0.137-0.168z"></path>
<path fill="#000" style="fill: var(--color5, #000)" d="M12.447 26.025c0.014 0.011-0.017 0.087-0.097 0.207-0.058 0.086-0.143 0.222-0.254 0.263-0.138 0.059-0.148-0.134-0.126-0.253 0.037-0.2 0.109-0.376 0.147-0.565 0.006-0.034 0.010-0.046 0.010-0.075-0-0.050 0.035-0.014 0.046 0.009 0.030 0.063 0.022 0.17 0.011 0.253-0.019 0.152-0.069 0.314-0.085 0.47 0.083-0.072 0.319-0.331 0.348-0.309zM12.053 26.365c0.001 0 0.003-0 0.005-0.001-0.003 0-0.005 0.001-0.005 0.001zM12.327 25.258c0 0.064-0.069 0.104-0.133 0.104-0.147 0-0.152-0.079-0.005-0.079 0.064 0 0.138-0.089 0.138-0.025zM12.098 26.386v0z"></path>
<path fill="#000" style="fill: var(--color5, #000)" d="M12.651 26.44c-0.064 0.051-0.189 0.129-0.27 0.025-0.094-0.128-0-0.347 0.050-0.448 0.081-0.166 0.193-0.324 0.35-0.408 0.076-0.041 0.187-0.056 0.266-0.007 0.034 0.021 0.058 0.047 0.074 0.069 0.050 0.066 0.051 0.11 0.047 0.112s-0.106-0.101-0.153-0.121c-0.104-0.043-0.196 0.030-0.25 0.081-0.123 0.116-0.234 0.303-0.276 0.5-0.003 0.013-0.028 0.143 0.002 0.138 0.025-0.007 0.051-0.034 0.073-0.051 0.132-0.103 0.245-0.229 0.37-0.34 0.038-0.034 0.166-0.163 0.227-0.060 0.011 0.021 0.016 0.037 0.015 0.046 0.010 0.15-0.070 0.269-0.107 0.398 0.047-0.040 0.312-0.36 0.331-0.348 0.029 0.018-0.136 0.262-0.174 0.311-0.040 0.053-0.125 0.197-0.232 0.182-0.107-0.027-0.012-0.256 0.007-0.327 0.009-0.034 0.020-0.069 0.029-0.105-0.126 0.117-0.242 0.246-0.379 0.353z"></path>
<path fill="#000" style="fill: var(--color5, #000)" d="M16.955 23.733c0.383 0 0.719 0.193 0.684 0.582-0.021 0.249-0.154 0.438-0.28 0.602-0.228 0.297-0.521 0.554-0.835 0.774-0.232 0.162-0.468 0.305-0.754 0.411-0.010 0.039-0.019 0.071-0.028 0.109 0.324 0.258 0.614 0.593 0.926 0.844 0.386 0.311 0.872 0.579 1.45 0.555 0.096-0.004 0.143-0.011 0.145-0.005 0.001 0.004-0.043 0.020-0.137 0.034-0.090 0.013-0.245 0.025-0.437-0.006-0.616-0.099-1.131-0.517-1.54-0.93-0.13-0.131-0.28-0.261-0.434-0.383-0.102 0.39-0.219 0.806-0.292 1.198-0.007 0.036-0.027 0.194-0.037 0.193-0.047-0.005 0.011-0.445 0.018-0.495 0.049-0.319 0.127-0.661 0.202-0.98-0.028-0.021-0.055-0.041-0.084-0.061-0.248 0.049-0.49-0.003-0.566-0.23-0.043-0.11 0.034-0.172 0.142-0.139 0.157 0.045 0.294 0.148 0.418 0.235 0.050-0.012 0.097-0.026 0.145-0.043 0.119-0.497 0.254-1.004 0.348-1.521 0.025-0.14 0.051-0.267 0.050-0.42-0.076 0.028-0.151 0.058-0.224 0.090-0.146 0.173-0.508 0.702-0.525 0.69s0.166-0.358 0.327-0.6c-0.417 0.2-0.825 0.441-1.099 0.759-0.069 0.081-0.129 0.157-0.151 0.265-0.034 0.174 0.124 0.253 0.252 0.295 0.063 0.020 0.343 0.074 0.343 0.075 0 0.003-0.062 0.011-0.191-0.004-0.135-0.016-0.281-0.053-0.376-0.133-0.112-0.095-0.109-0.246-0.066-0.35 0.068-0.164 0.194-0.293 0.326-0.412 0.308-0.278 0.679-0.501 1.101-0.689 0.054-0.068 0.113-0.15 0.204-0.189 0.041-0.018 0.146-0.009 0.156 0.045 0.236-0.082 0.497-0.164 0.818-0.164zM15.066 25.903c-0 0-0 0.001-0 0.002 0-0.001 0-0.001 0-0.002zM15.069 25.916c0.037 0.125 0.153 0.158 0.293 0.148-0.086-0.055-0.185-0.127-0.293-0.148zM16.175 24.015l0 0.001c0.023 0.19-0.012 0.344-0.038 0.503-0.082 0.492-0.205 0.956-0.324 1.419 0.413-0.18 0.764-0.438 1.070-0.719 0.189-0.174 0.366-0.364 0.496-0.586 0.059-0.101 0.117-0.216 0.128-0.35 0.020-0.256-0.168-0.381-0.383-0.413-0.367-0.055-0.691 0.058-0.948 0.146z"></path>
<path fill="#000" style="fill: var(--color5, #000)" d="M18.609 26.099c-0.036 0.015-0.092 0.038-0.16 0.059-0.072 0.149-0.19 0.268-0.329 0.329-0.053 0.023-0.109 0.036-0.165 0.036-0.14 0.001-0.209-0.128-0.194-0.276 0.005-0.044 0.016-0.086 0.031-0.126-0.013-0.019-0.022-0.042-0.029-0.067-0.025-0.1 0.017-0.191 0.056-0.254 0.092-0.147 0.337-0.357 0.573-0.208 0.098 0.062 0.151 0.191 0.124 0.353-0.008 0.047-0.019 0.092-0.035 0.135 0.049-0.011 0.089-0.020 0.112-0.026 0.169-0.038 0.147-0.013 0.015 0.045zM17.861 26.328c0.045 0.168 0.251 0.041 0.322-0.025 0.030-0.028 0.060-0.061 0.086-0.097-0.15 0.031-0.31 0.040-0.411-0.022-0.009 0.048-0.010 0.096 0.002 0.144zM18.387 25.924c0.023-0.164-0.057-0.287-0.231-0.237-0.12 0.034-0.252 0.147-0.277 0.279 0.034-0.046 0.071-0.084 0.104-0.11 0.039-0.031 0.062-0.042 0.066-0.037s-0.011 0.025-0.039 0.063c-0.030 0.040-0.078 0.106-0.113 0.185 0.064 0.081 0.26 0.070 0.431 0.042 0.028-0.056 0.049-0.119 0.059-0.185z"></path>
<path fill="#000" style="fill: var(--color5, #000)" d="M19.625 26.085c-0.085 0.072-0.172 0.147-0.26 0.227 0.013 0.030 0.020 0.065 0.022 0.104 0.007 0.159-0.059 0.285-0.12 0.39-0.097 0.171-0.224 0.325-0.376 0.441-0.081 0.062-0.299 0.191-0.369 0.010-0.059-0.111 0.050-0.247 0.097-0.311 0.155-0.213 0.4-0.441 0.609-0.612-0.045-0.064-0.14-0.081-0.248-0.079-0.078-0.005-0.157-0.002-0.234 0.005-0.019-0.026-0.032-0.046-0.040-0.059 0.008-0.033 0.028-0.049 0.046-0.066 0.104-0.096 0.229-0.184 0.339-0.265 0.126-0.093 0.24-0.175 0.362-0.262-0.001-0-0.002 0-0.004 0-0-0.001 0.001-0.001 0.001-0.001s-0.024-0.007-0.034-0.007c-0.082-0.002-0.167 0.036-0.229 0.062-0.162 0.069-0.321 0.163-0.422 0.283-0.022 0.026-0.030 0.042-0.035 0.040-0.018-0.006 0.037-0.095 0.047-0.108 0.111-0.15 0.313-0.281 0.514-0.347 0.117-0.040 0.305-0.034 0.244 0.137-0.029 0.041-0.083 0.071-0.124 0.102-0.153 0.118-0.315 0.241-0.469 0.367 0.153-0.017 0.307 0.015 0.387 0.115 0.009-0.007 0.018-0.014 0.026-0.020 0.099-0.076 0.161-0.122 0.252-0.17 0.084-0.044 0.078-0.029 0.016 0.024zM18.848 26.838c-0.076 0.089-0.168 0.19-0.21 0.31-0.005 0.016-0.009 0.030-0.009 0.041-0.001 0.093 0.165-0.027 0.185-0.043 0.136-0.106 0.252-0.252 0.339-0.406 0.050-0.089 0.109-0.19 0.102-0.318-0-0.002-0-0.005-0.001-0.007-0.139 0.131-0.277 0.272-0.406 0.424zM18.822 26.243c-0 0.001-0 0 0-0s-0 0-0 0z"></path>
<path fill="#000" style="fill: var(--color5, #000)" d="M20.287 26.395c0.167-0.066 0.303-0.258 0.363-0.42 0.038-0.104 0.047-0.24-0.006-0.332-0.016-0.027-0.083-0.095-0.078-0.105 0.001-0.002 0.056-0.002 0.122 0.073 0.164 0.188 0.039 0.505-0.076 0.664-0.071 0.099-0.188 0.235-0.342 0.259-0.197 0.032-0.209-0.179-0.21-0.374-0.116 0.087-0.239 0.171-0.374 0.228-0.042 0.018-0.122 0.020-0.125-0.041-0.026-0.28 0.181-0.682 0.29-0.658s-0.16 0.451-0.176 0.573c-0 0-0 0.001-0 0.001 0.139-0.080 0.272-0.177 0.395-0.277 0.004-0.006 0.017-0.012 0.041-0.016 0.105 0.002 0.080 0.132 0.080 0.23 0 0.094-0.006 0.235 0.098 0.195z"></path>
<path fill="#000" style="fill: var(--color5, #000)" d="M21.249 26.025c0.014 0.011-0.017 0.087-0.097 0.207-0.058 0.086-0.143 0.222-0.254 0.263-0.138 0.059-0.148-0.134-0.126-0.253 0.037-0.2 0.109-0.376 0.147-0.565 0.006-0.034 0.010-0.046 0.010-0.075-0-0.050 0.035-0.014 0.046 0.009 0.030 0.063 0.022 0.17 0.011 0.253-0.019 0.152-0.069 0.314-0.085 0.47 0.083-0.072 0.319-0.331 0.348-0.309zM20.855 26.365c0.001 0 0.003-0 0.005-0.001-0.003 0-0.005 0.001-0.005 0.001zM21.129 25.258c0 0.064-0.069 0.104-0.133 0.104-0.147 0-0.152-0.079-0.005-0.079 0.064 0 0.138-0.089 0.138-0.025zM20.899 26.386v0z"></path>
<path fill="#000" style="fill: var(--color5, #000)" d="M21.375 25.512c0.008 0.119-0.007 0.198-0.024 0.355-0.057 0.523-0.178 1.334-0.337 1.811-0.028 0.084-0.101 0.34-0.245 0.228-0.112-0.092-0.034-0.376-0.003-0.502 0.055-0.228 0.159-0.536 0.221-0.693 0.1-0.243 0.137-0.28 0.061 0.020-0.055 0.227-0.169 0.626-0.198 0.909-0.003 0.030-0.008 0.069-0.007 0.103 0.015-0.034 0.026-0.074 0.037-0.109 0.197-0.612 0.294-1.463 0.447-2.051 0.009-0.033 0.016-0.058 0.022-0.075 0.012-0.032 0.021-0.037 0.023 0.003zM21.395 25.248c-0.147 0-0.146-0.051 0-0.069 0.118-0.015 0.267 0.069 0 0.069z"></path>
<path fill="#000" style="fill: var(--color5, #000)" d="M21.709 26.44c-0.064 0.051-0.189 0.129-0.27 0.025-0.094-0.128-0-0.347 0.050-0.448 0.081-0.166 0.193-0.324 0.35-0.408 0.076-0.041 0.187-0.056 0.266-0.007 0.034 0.021 0.058 0.047 0.074 0.069 0.049 0.066 0.051 0.11 0.047 0.112s-0.106-0.101-0.153-0.121c-0.104-0.043-0.196 0.030-0.25 0.081-0.123 0.116-0.234 0.303-0.276 0.5-0.003 0.013-0.028 0.143 0.002 0.138 0.025-0.007 0.051-0.034 0.073-0.051 0.132-0.103 0.245-0.229 0.37-0.34 0.038-0.034 0.166-0.163 0.227-0.060 0.011 0.021 0.016 0.037 0.015 0.046 0.010 0.15-0.070 0.269-0.107 0.398 0.047-0.040 0.312-0.36 0.331-0.348 0.029 0.018-0.136 0.262-0.174 0.311-0.040 0.053-0.125 0.197-0.232 0.182-0.107-0.027-0.012-0.256 0.007-0.327 0.009-0.034 0.020-0.069 0.029-0.105-0.125 0.117-0.242 0.246-0.379 0.353z"></path>
<path fill="#000" style="fill: var(--color5, #000)" d="M22.581 25.579c0.026-0.075 0.142-0.073 0.122 0-0.034 0.1-0.064 0.192-0.097 0.3-0.044 0.145-0.103 0.3-0.111 0.47 0.010-0.008 0.020-0.017 0.030-0.026 0.226-0.214 0.387-0.5 0.626-0.703 0.030-0.026 0.072-0.063 0.132-0.050 0.161 0.036 0.035 0.319 0.011 0.408-0.020 0.072-0.136 0.485-0.008 0.441 0.049-0.020 0.094-0.063 0.13-0.097 0.052-0.049 0.252-0.286 0.262-0.279 0.006 0.004-0.017 0.059-0.080 0.156-0.044 0.068-0.127 0.18-0.202 0.246-0.035 0.032-0.084 0.074-0.155 0.070-0.115-0.013-0.125-0.164-0.112-0.283 0.019-0.182 0.090-0.337 0.104-0.515-0.030 0.026-0.058 0.057-0.088 0.090-0.179 0.2-0.333 0.43-0.529 0.615-0.038 0.036-0.087 0.092-0.163 0.085-0.103-0.014-0.095-0.151-0.077-0.249 0.043-0.244 0.128-0.467 0.206-0.677zM22.496 26.393c0 0.001 0 0.001 0 0.001s0-0-0-0.001zM23.232 25.672c-0 0 0 0.001 0.001 0.001-0-0.001-0-0.001-0.001-0.001z"></path>
<path fill="#000" style="fill: var(--color5, #000)" d="M24.401 25.868c-0.067 0.11-0.178 0.187-0.31 0.221-0.024 0.135-0.014 0.342 0.144 0.313 0.106-0.021 0.207-0.117 0.27-0.175 0.139-0.13 0.197-0.211 0.209-0.202 0.004 0.003-0.037 0.096-0.167 0.243-0.067 0.076-0.168 0.181-0.292 0.216-0.142 0.042-0.23-0.064-0.256-0.174-0.015-0.091-0.006-0.188 0.021-0.285 0.105-0.045 0.221-0.119 0.277-0.219 0.013-0.023 0.039-0.068 0.032-0.096-0.030-0.019-0.063-0.013-0.095 0.004-0.198 0.139-0.305 0.377-0.438 0.584-0.018 0.030-0.038 0.062-0.063 0.087-0.036 0.050-0.125 0.015-0.133-0.034-0.009-0.050 0.006-0.090 0.014-0.134 0.103-0.581 0.211-1.166 0.382-1.687 0.038-0.116 0.078-0.288 0.186-0.339 0.032-0.015 0.073-0.004 0.095 0.014 0.063 0.055 0.047 0.184 0.029 0.277-0.060 0.309-0.217 0.696-0.317 0.92-0.115 0.253-0.144 0.277-0.048-0.018 0.071-0.226 0.211-0.629 0.257-0.921 0.004-0.026 0.021-0.095 0.015-0.138-0.006 0.009-0.011 0.018-0.014 0.023-0.081 0.16-0.124 0.358-0.17 0.55-0.091 0.373-0.169 0.761-0.242 1.153 0.106-0.173 0.215-0.342 0.387-0.45 0.087-0.060 0.259-0.024 0.274 0.074 0.017 0.078-0.017 0.146-0.047 0.193zM23.637 26.283c0.002-0 0.003-0.001 0.005-0.003-0.002 0.001-0.004 0.002-0.005 0.003zM23.736 26.326c-0-0-0-0-0-0s0 0 0 0zM24.327 25.704c-0.001-0.001-0.001-0 0.001 0.002-0-0.001-0.001-0.001-0.001-0.002z"></path>
<path fill="#000" style="fill: var(--color5, #000)" d="M24.908 26.44c-0.064 0.051-0.189 0.129-0.27 0.025-0.094-0.128-0-0.347 0.050-0.448 0.081-0.166 0.193-0.324 0.35-0.408 0.076-0.041 0.187-0.056 0.266-0.007 0.034 0.021 0.058 0.047 0.074 0.069 0.049 0.066 0.051 0.11 0.047 0.112s-0.106-0.101-0.153-0.121c-0.104-0.043-0.196 0.030-0.25 0.081-0.123 0.116-0.234 0.303-0.276 0.5-0.003 0.013-0.028 0.143 0.002 0.138 0.025-0.007 0.051-0.034 0.073-0.051 0.132-0.103 0.245-0.229 0.37-0.34 0.038-0.034 0.166-0.163 0.227-0.060 0.011 0.021 0.016 0.037 0.015 0.046 0.010 0.15-0.070 0.269-0.107 0.398 0.047-0.040 0.312-0.36 0.331-0.348 0.029 0.018-0.136 0.262-0.174 0.311-0.040 0.053-0.125 0.197-0.232 0.182-0.107-0.027-0.012-0.256 0.007-0.327 0.009-0.034 0.020-0.069 0.029-0.105-0.126 0.117-0.242 0.246-0.379 0.353z"></path>
<path fill="#000" style="fill: var(--color5, #000)" d="M-0.591 3.59c0.079-0.035 0.153-0.081 0.223-0.131s0.139-0.104 0.205-0.159c0.133-0.111 0.26-0.23 0.386-0.348 0.253-0.237 0.502-0.48 0.774-0.697 0.136-0.108 0.278-0.21 0.433-0.293 0.077-0.041 0.157-0.078 0.242-0.104s0.172-0.043 0.261-0.043c0.089 0.001 0.179 0.020 0.26 0.058s0.153 0.093 0.214 0.157c0.123 0.128 0.209 0.285 0.278 0.445 0.034 0.080 0.065 0.163 0.092 0.245s0.050 0.167 0.076 0.25c0.050 0.165 0.105 0.33 0.166 0.491 0.031 0.081 0.063 0.161 0.097 0.24s0.071 0.157 0.111 0.233c0.080 0.152 0.172 0.299 0.286 0.426 0.057 0.063 0.121 0.12 0.19 0.169s0.145 0.088 0.224 0.119c0.158 0.063 0.331 0.093 0.495 0.16 0.082 0.033 0.16 0.076 0.231 0.129s0.135 0.114 0.191 0.181c0.056 0.066 0.111 0.133 0.171 0.195s0.121 0.124 0.186 0.18c0.065 0.056 0.135 0.109 0.209 0.152s0.155 0.078 0.24 0.092c0.042 0.007 0.086 0.009 0.128 0.003s0.084-0.017 0.124-0.034c0.020-0.008 0.039-0.018 0.059-0.027l0.015-0.007c0.004-0.002 0.008-0.005 0.011-0.007s0.005-0.005 0.005-0.007c0-0.002-0-0.004-0.002-0.007-0.004-0.006-0.011-0.013-0.019-0.018s-0.017-0.011-0.026-0.015-0.038-0.017-0.058-0.023c-0.080-0.026-0.165-0.040-0.249-0.045-0.042-0.002-0.084-0.001-0.124 0.005s-0.079 0.019-0.11 0.040c-0.030 0.021-0.052 0.054-0.065 0.091s-0.018 0.078-0.019 0.12c-0.001 0.041 0.004 0.083 0.011 0.124s0.018 0.083 0.035 0.118c0.002 0.004 0.004 0.008 0.007 0.011 0.001 0.003 0.007 0.004-0.004 0.001-0.020 0.003-0.014 0.010-0.014 0.005 0.001-0.003 0.002-0.007 0.002-0.012 0.001-0.018 0-0.041 0-0.063l-0-0.13c0-0.044 0.001-0.087 0.003-0.131l0.001-0.017c0.001-0.007-0-0.009 0.004-0.022 0.068 0.004 0.022 0.014 0.037 0.018l0.002 0.017c0.002 0.022 0.004 0.044 0.005 0.066 0.005 0.087 0.004 0.174 0.008 0.26 0.001 0.011 0.002 0.021 0.003 0.031 0.001 0.005 0.002 0.010 0.003 0.014 0.004 0.008 0-0.002-0.010 0.002 0-0 0.004-0.005 0.005-0.009s0.004-0.009 0.006-0.014 0.007-0.020 0.010-0.030 0.012-0.041 0.017-0.062c0.005-0.021 0.010-0.042 0.017-0.064 0.004-0.011 0.008-0.022 0.015-0.032s0.017-0.019 0.028-0.025c0.022-0.012 0.045-0.015 0.067-0.017 0.044-0.004 0.088-0.003 0.131-0.002 0.042 0.001 0.083-0.009 0.115-0.034s0.055-0.061 0.077-0.099c0.011-0.019 0.022-0.038 0.036-0.057s0.032-0.038 0.055-0.052c0.023-0.014 0.051-0.021 0.077-0.022s0.052 0.003 0.075 0.010c0.023 0.007 0.045 0.016 0.066 0.026l0.029 0.015c0.010 0.005 0.019 0.010 0.029 0.014 0.037 0.017 0.077 0.033 0.117 0.047 0.16 0.056 0.329 0.091 0.498 0.108 0.085 0.007 0.17 0.011 0.253 0.001 0.021-0.002 0.041-0.006 0.060-0.011 0.009-0.003 0.019-0.006 0.027-0.009s0.021-0.009 0.033-0.013c0.006-0.002 0.012-0.004 0.019-0.005s0.015-0.002 0.026-0c0.011 0.001 0.027 0.013 0.031 0.027s0.002 0.021 0.001 0.029-0.009 0.026-0.014 0.037c-0.006 0.011-0.012 0.021-0.019 0.031 0.029-0.007-0.054 0.040-0.047-0.018 0.003-0.007 0.006-0.011 0.009-0.016 0.006-0.010 0.012-0.018 0.019-0.028 0.014-0.020 0.030-0.036 0.046-0.052 0.032-0.031 0.068-0.058 0.104-0.083 0.073-0.049 0.154-0.089 0.241-0.11 0.043-0.010 0.088-0.015 0.133-0.011s0.089 0.017 0.127 0.040c0.039 0.023 0.071 0.054 0.098 0.090s0.047 0.075 0.063 0.116c0.031 0.081 0.062 0.162 0.097 0.241s0.072 0.158 0.116 0.232c0.006 0.009 0.011 0.018 0.018 0.027 0.003 0.004 0.006 0.009 0.009 0.012 0.012-0.001-0.007 0.013-0.006 0.007-0.007-0.018-0.020-0.037-0.031-0.055-0.023-0.036-0.048-0.072-0.076-0.104-0.055-0.064-0.126-0.115-0.205-0.132-0.020-0.004-0.040-0.006-0.060-0.007l-0.015 0-0.016 0.001c-0.011 0.001-0.022 0.001-0.032 0.002-0.020 0.002-0.040 0.006-0.059 0.010s-0.035 0.012-0.060 0.021c-0.012 0.004-0.027 0.007-0.042 0.008s-0.027 0-0.040-0.001c-0.025-0.003-0.048-0.007-0.070-0.012-0.045-0.009-0.088-0.021-0.132-0.036-0.022-0.007-0.043-0.015-0.064-0.024-0.011-0.005-0.021-0.009-0.032-0.014l-0.016-0.008c-0.074 0.1 0.083-0.145 0.070-0.118 0.037 0.024 0.072 0.052 0.102 0.070 0.032 0.019 0.062 0.033 0.095 0.040s0.068 0.011 0.108 0.016c0.010 0.002 0.020 0.003 0.030 0.004s0.021 0.002 0.031 0.002 0.044 0.002 0.066 0.003l0.033 0.001c0.011 0 0.022 0.001 0.032-0.001s0.020-0.002 0.029-0.005c0.004-0.001 0.007-0.003 0.009-0.004s0.003-0.003 0.003-0.007c-0-0.008-0.005-0.017-0.010-0.026s-0.012-0.018-0.018-0.026-0.026-0.035-0.040-0.050c-0.029-0.031-0.064-0.058-0.102-0.079-0.075-0.042-0.165-0.062-0.248-0.039-0.041 0.011-0.078 0.031-0.112 0.059-0.009 0.007-0.018 0.013-0.030 0.018-0.006 0.002-0.013 0.005-0.023 0.002-0.013-0.004-0.015-0.019-0.014-0.025 0.001-0.015 0.006-0.025 0.011-0.036s0.011-0.020 0.018-0.030c0.105-0.146 0.292-0.229 0.475-0.212 0.023 0.002 0.046 0.005 0.068 0.010 0.011 0.002 0.022 0.005 0.034 0.008l0.031 0.008c0.043 0.012 0.086 0.026 0.128 0.042 0.083 0.032 0.163 0.071 0.241 0.111 0.156 0.080 0.305 0.165 0.461 0.218 0.078 0.027 0.157 0.045 0.237 0.052 0.040 0.004 0.080 0.004 0.12 0.003 0.020-0.002 0.040-0.002 0.060-0.005l0.063-0.008c0.175-0.024 0.357-0.033 0.538-0.005 0.045 0.006 0.090 0.016 0.135 0.028 0.044 0.013 0.089 0.027 0.131 0.045 0.086 0.036 0.167 0.086 0.237 0.149s0.128 0.138 0.173 0.22c0.045 0.082 0.076 0.168 0.099 0.257 0.044 0.177 0.051 0.357 0.041 0.533-0.005 0.088-0.014 0.176-0.024 0.262-0.002 0.021-0.005 0.043-0.007 0.064s-0.002 0.039-0.002 0.060c0.001 0.041 0.006 0.083 0.012 0.125 0.012 0.084 0.030 0.168 0.052 0.251 0.011 0.041 0.023 0.082 0.036 0.123 0.007 0.020 0.014 0.040 0.021 0.059 0.004 0.010 0.008 0.019 0.012 0.028s0.009 0.018 0.012 0.022c-0.001 0.004 0.009-0.002-0.019-0.002-0.024 0.012-0.013 0.013-0.015 0.010 0.002-0.005 0.003-0.016 0.003-0.025s0-0.021 0-0.030c-0-0.011-0.001-0.022-0.002-0.032-0.003-0.040-0.011-0.080-0.030-0.111s-0.050-0.050-0.089-0.062c-0.039-0.012-0.081-0.019-0.124-0.026s-0.086-0.016-0.129-0.028c-0.021-0.006-0.043-0.013-0.063-0.020s-0.042-0.016-0.062-0.026c-0.040-0.020-0.079-0.046-0.111-0.079s-0.056-0.073-0.073-0.115c-0.017-0.042-0.029-0.084-0.039-0.127l-0.015-0.063-0.004-0.015-0.004-0.016c-0.003-0.010-0.007-0.018-0.011-0.028-0.018-0.036-0.048-0.064-0.084-0.086s-0.076-0.040-0.114-0.062c-0.038-0.022-0.075-0.050-0.102-0.086s-0.047-0.077-0.057-0.122c-0.009-0.045-0.004-0.091 0.008-0.134s0.032-0.084 0.057-0.12c0.025-0.037 0.056-0.069 0.092-0.096s0.079-0.045 0.124-0.051c0.045-0.005 0.092 0.006 0.131 0.030s0.069 0.057 0.095 0.094c0.025 0.037 0.044 0.076 0.064 0.115s0.037 0.079 0.052 0.12c0.015 0.041 0.029 0.083 0.039 0.125s0.018 0.086 0.017 0.131c-0.001 0.022-0.002 0.045-0.014 0.068-0.003 0.005-0.008 0.011-0.013 0.015s-0.013 0.007-0.021 0.007c-0.014-0-0.026-0.006-0.036-0.013-0.019-0.014-0.034-0.031-0.048-0.048s-0.026-0.036-0.037-0.055c-0.045-0.078-0.064-0.165-0.082-0.249-0.009-0.043-0.017-0.085-0.027-0.127s-0.023-0.083-0.042-0.12c-0.019-0.037-0.046-0.070-0.081-0.091s-0.077-0.029-0.119-0.029c-0.042-0.001-0.084 0.006-0.126 0.015-0.021 0.005-0.041 0.010-0.062 0.017s-0.042 0.013-0.064 0.017c-0.043 0.010-0.088 0.015-0.133 0.012s-0.090-0.014-0.131-0.034c-0.041-0.020-0.077-0.050-0.106-0.084s-0.052-0.074-0.069-0.116c-0.008-0.021-0.015-0.042-0.020-0.064-0.003-0.011-0.005-0.022-0.006-0.034s-0.003-0.023-0-0.038c-0.014-0.014 0.047-0.028 0.042-0.009 0.005 0.007 0.007 0.012 0.009 0.018 0.004 0.011 0.008 0.022 0.011 0.033 0.006 0.021 0.011 0.044 0.015 0.065 0.016 0.088 0.018 0.176 0.020 0.263s0.002 0.173 0.011 0.258c0.009 0.084 0.027 0.168 0.068 0.24s0.104 0.127 0.179 0.163c0.019 0.009 0.038 0.017 0.057 0.024s0.040 0.013 0.061 0.019 0.084 0.026 0.125 0.040c0.041 0.015 0.083 0.030 0.123 0.049s0.080 0.042 0.117 0.071c0.036 0.029 0.067 0.065 0.093 0.102s0.047 0.075 0.069 0.112c0.022 0.037 0.044 0.074 0.067 0.11s0.047 0.071 0.072 0.107c0.049 0.074 0.093 0.148 0.137 0.224l0.13 0.226c0.087 0.15 0.175 0.299 0.271 0.442s0.199 0.281 0.316 0.406c0.058 0.062 0.12 0.121 0.187 0.174 0.017 0.013 0.034 0.026 0.050 0.038s0.034 0.022 0.052 0.031c0.036 0.018 0.074 0.029 0.113 0.034 0.078 0.009 0.16-0.014 0.227-0.058 0.017-0.011 0.032-0.024 0.046-0.037s0.027-0.029 0.035-0.043c0.004-0.007 0.006-0.015 0.006-0.017s0 0.002 0.002 0.004c0.002 0.002 0.004 0.002 0.002 0.002-0.003-0.001-0.012-0-0.020 0.002s-0.018 0.005-0.027 0.008c-0.037 0.014-0.074 0.035-0.11 0.057s-0.071 0.047-0.106 0.072-0.136 0.105-0.202 0.161c-0.066 0.056-0.13 0.113-0.194 0.172s-0.127 0.118-0.187 0.18c-0.12 0.124-0.231 0.257-0.335 0.395-0.208 0.277-0.389 0.573-0.555 0.877s-0.316 0.617-0.454 0.935c-0.069 0.159-0.135 0.319-0.199 0.48s-0.125 0.323-0.186 0.486c-0.016 0.041-0.031 0.081-0.048 0.122-0.009 0.021-0.017 0.040-0.029 0.063-0.004 0.006-0.005 0.011-0.017 0.023-0.057 0.039-0.094-0.058-0.076-0.038-0.001-0.016 0.001-0.027 0.002-0.039 0.009-0.090 0.032-0.176 0.034-0.255 0.008-0.165-0.027-0.331-0.080-0.491-0.054-0.16-0.125-0.315-0.203-0.467s-0.164-0.302-0.251-0.451c-0.175-0.298-0.36-0.592-0.533-0.895s-0.336-0.614-0.462-0.944c-0.031-0.082-0.060-0.166-0.086-0.25l-0.074-0.25c-0.049-0.166-0.099-0.331-0.154-0.495s-0.112-0.326-0.179-0.484c-0.066-0.158-0.141-0.311-0.234-0.452s-0.205-0.267-0.34-0.367c-0.067-0.050-0.139-0.094-0.213-0.134s-0.155-0.074-0.233-0.113c-0.078-0.039-0.156-0.080-0.232-0.126s-0.15-0.094-0.22-0.151c-0.069-0.057-0.136-0.122-0.182-0.206-0.012-0.021-0.021-0.043-0.029-0.066-0.007-0.023-0.014-0.047-0.016-0.071-0.007-0.048-0.001-0.099 0.011-0.144 0.021-0.081 0.033-0.165 0.039-0.25 0.001-0.021 0.002-0.042 0.002-0.063 0-0.010-0-0.021-0.001-0.031-0-0.005-0.001-0.010-0.001-0.015s-0.002-0.011-0.001-0.008c0.114 0.021 0.043-0.016 0.062 0.003-0.001 0.004-0.001 0.009-0.001 0.014-0.001 0.010-0.001 0.021-0.002 0.032-0.001 0.022-0.002 0.043-0.002 0.063s0.002 0.038 0.008 0.050c0.005 0.012 0.015 0.020 0.031 0.027s0.035 0.013 0.055 0.017c0.010 0.002 0.020 0.004 0.031 0.006l0.016 0.003 0.017 0.003c0.025 0.005 0.048 0.014 0.070 0.027s0.041 0.030 0.057 0.047c0.032 0.035 0.055 0.072 0.081 0.106 0.050 0.069 0.106 0.132 0.169 0.19 0.031 0.029 0.064 0.057 0.097 0.083s0.069 0.047 0.107 0.064c0.076 0.035 0.159 0.057 0.243 0.073s0.17 0.025 0.256 0.034c0.086 0.009 0.173 0.017 0.259 0.032 0.043 0.008 0.086 0.017 0.129 0.032s0.084 0.036 0.117 0.069c0.017 0.016 0.030 0.037 0.040 0.057s0.019 0.040 0.025 0.062c0.006 0.022 0.012 0.045 0.007 0.071-0.003 0.013-0.011 0.027-0.022 0.035s-0.025 0.012-0.037 0.013c-0.024 0.003-0.047-0.001-0.069-0.005s-0.043-0.011-0.064-0.019-0.082-0.033-0.121-0.051-0.155-0.080-0.23-0.124c-0.037-0.022-0.075-0.045-0.111-0.070-0.018-0.013-0.036-0.026-0.053-0.041s-0.034-0.030-0.047-0.054c-0.003-0.006-0.007-0.013-0.006-0.026 0-0.015 0.017-0.027 0.026-0.027 0.018-0.003 0.030 0 0.042 0.003 0.023 0.007 0.044 0.016 0.064 0.027 0.040 0.022 0.076 0.048 0.111 0.076 0.069 0.056 0.13 0.121 0.185 0.19s0.104 0.143 0.146 0.221l0.016 0.029 0.016 0.028c0.011 0.018 0.021 0.035 0.033 0.052 0.024 0.034 0.051 0.066 0.079 0.097 0.116 0.122 0.262 0.213 0.416 0.282s0.322 0.113 0.491 0.13c0.084 0.009 0.17 0.010 0.254 0.003s0.168-0.024 0.246-0.052c0.079-0.029 0.153-0.070 0.216-0.124s0.113-0.124 0.146-0.2c0.004-0.010 0.008-0.019 0.012-0.029s0.008-0.020 0.011-0.030l0.009-0.031c0.003-0.010 0.007-0.021 0.010-0.032 0.015-0.042 0.035-0.084 0.064-0.12s0.066-0.066 0.11-0.083c0.043-0.017 0.091-0.021 0.135-0.016 0.090 0.010 0.172 0.049 0.246 0.096s0.141 0.104 0.203 0.165c0.124 0.123 0.227 0.265 0.313 0.416s0.153 0.314 0.197 0.482c0.044 0.168 0.063 0.344 0.050 0.517-0.006 0.087-0.021 0.173-0.043 0.257s-0.049 0.167-0.079 0.248c-0.061 0.163-0.133 0.321-0.209 0.477-0.152 0.312-0.316 0.618-0.461 0.933s-0.272 0.639-0.347 0.977c-0.076 0.337-0.095 0.688-0.029 1.026 0.008 0.042 0.018 0.084 0.028 0.126 0.011 0.041 0.022 0.083 0.035 0.124 0.026 0.082 0.055 0.162 0.090 0.24 0.008 0.020 0.018 0.039 0.027 0.058s0.018 0.039 0.028 0.058l0.029 0.057 0.031 0.057 0.123 0.229 0.246 0.458c0.041 0.076 0.082 0.152 0.125 0.227s0.085 0.15 0.131 0.22c0.023 0.035 0.047 0.069 0.072 0.1s0.055 0.060 0.085 0.090c0.063 0.060 0.125 0.125 0.183 0.191 0.029 0.033 0.057 0.067 0.085 0.101l0.021 0.026 0.020 0.025c0.014 0.018 0.028 0.035 0.041 0.053 0.053 0.071 0.103 0.146 0.144 0.228s0.074 0.171 0.082 0.267c0.004 0.048 0.002 0.097-0.007 0.144s-0.023 0.093-0.042 0.136c-0.038 0.086-0.089 0.161-0.143 0.232s-0.112 0.137-0.17 0.202l-0.088 0.097-0.044 0.048-0.023 0.024-0.024 0.024c-0.063 0.063-0.13 0.12-0.197 0.176-0.135 0.111-0.275 0.215-0.415 0.318-0.28 0.205-0.565 0.404-0.839 0.615-0.137 0.106-0.272 0.214-0.397 0.332-0.062 0.059-0.123 0.12-0.175 0.187-0.026 0.033-0.050 0.068-0.068 0.105s-0.030 0.076-0.026 0.112l-0.007-0.013c0.010 0.011 0.017 0.020 0.024 0.030s0.013 0.020 0.019 0.031 0.021 0.043 0.028 0.066c0.015 0.045 0.023 0.092 0.024 0.139s-0.002 0.093-0.015 0.141c-0.006 0.023-0.016 0.046-0.028 0.067s-0.023 0.039-0.027 0.055c-0.008 0.032 0.012 0.074 0.032 0.112 0.021 0.038 0.044 0.076 0.069 0.113 0.052 0.079 0.081 0.171 0.093 0.263s0.006 0.186-0.014 0.277c-0.020 0.091-0.052 0.179-0.103 0.259-0.026 0.040-0.056 0.077-0.093 0.109-0.018 0.016-0.039 0.030-0.061 0.042s-0.046 0.021-0.070 0.027c-0.014 0.003-0.027 0.005-0.040 0.005s-0.027-0-0.040-0.003c-0.026-0.004-0.051-0.014-0.074-0.027-0.045-0.026-0.079-0.063-0.108-0.101-0.057-0.077-0.095-0.162-0.128-0.248s-0.059-0.173-0.082-0.261l-0.017-0.066c-0.003-0.012-0.006-0.023-0.008-0.035s-0.004-0.024-0.005-0.041c0-0.005 0-0.009 0.001-0.016 0-0.002 0.001-0.003 0.002-0.006s0.001-0.004 0.003-0.008 0.011-0.018 0.027-0.023c0.018-0.005 0.028 0.001 0.034 0.003 0.003 0.002 0.005 0.003 0.007 0.004s0.003 0.002 0.005 0.004c0.005 0.005 0.008 0.008 0.011 0.012 0.010 0.013 0.016 0.024 0.022 0.035 0.011 0.022 0.020 0.044 0.029 0.066 0.032 0.088 0.053 0.18 0.064 0.272 0.005 0.045 0.010 0.091 0.012 0.138 0.001 0.023 0.001 0.047-0 0.072-0.001 0.013-0.002 0.026-0.005 0.040s-0.006 0.030-0.022 0.050c-0.004 0.005-0.009 0.010-0.016 0.015s-0.015 0.008-0.023 0.010c-0.017 0.004-0.031 0.001-0.041-0.002-0.020-0.007-0.032-0.016-0.044-0.025s-0.020-0.017-0.029-0.026l-0.013-0.013-0.007-0.008-0.003-0.003-0.004-0.005c-0.010-0.013-0.016-0.024-0.023-0.035s-0.012-0.023-0.017-0.034-0.018-0.045-0.026-0.068c-0.029-0.090-0.047-0.179-0.063-0.269s-0.029-0.18-0.038-0.271l-0-0.003 0-0.003c0.002-0.134-0.007-0.266-0.020-0.401-0.006-0.068-0.012-0.137-0.011-0.209 0-0.036 0.004-0.072 0.009-0.108s0.014-0.072 0.024-0.107c0.022-0.070 0.053-0.135 0.089-0.196s0.075-0.118 0.117-0.174c0.041-0.056 0.085-0.109 0.129-0.161 0.022-0.026 0.045-0.052 0.067-0.078l0.067-0.076 0.1-0.115 0.032-0.039c0.043-0.052 0.086-0.103 0.128-0.156s0.084-0.106 0.126-0.159l0.124-0.161c0.164-0.216 0.324-0.434 0.482-0.654s0.315-0.441 0.472-0.663c0.078-0.111 0.157-0.221 0.237-0.332 0.040-0.055 0.079-0.11 0.121-0.165 0.021-0.027 0.040-0.055 0.062-0.082l0.040-0.051c-0 0 0.003-0.003 0.003-0.004l0.006-0.007c0.005-0.006 0.013-0.014 0.021-0.021 0.031-0.027 0.069-0.047 0.109-0.055s0.080-0.006 0.117 0.001c0.075 0.015 0.139 0.048 0.2 0.085 0.119 0.076 0.22 0.173 0.313 0.275s0.174 0.214 0.246 0.331c0.073 0.117 0.136 0.24 0.187 0.368 0.025 0.064 0.047 0.13 0.064 0.198s0.027 0.135 0.038 0.203 0.039 0.269 0.056 0.404 0.065 0.54 0.094 0.809c0.059 0.54 0.112 1.080 0.161 1.621 0.025 0.27 0.048 0.541 0.068 0.812 0.010 0.135 0.020 0.271 0.028 0.406s0.015 0.271 0.014 0.408c-0 0.017-0.001 0.034-0.002 0.052-0.001 0.009-0.002 0.017-0.003 0.026-0.001 0.005-0.002 0.009-0.003 0.014-0.001 0.002-0.002 0.005-0.003 0.008s-0.004 0.006-0.005 0.008c-0.023 0.028-0.047 0.051-0.071 0.076-0.048 0.048-0.097 0.095-0.146 0.142-0.098 0.094-0.196 0.188-0.293 0.283s-0.192 0.192-0.283 0.292c-0.046 0.050-0.090 0.101-0.131 0.155-0.020 0.027-0.040 0.054-0.055 0.083-0.008 0.014-0.015 0.030-0.017 0.044-0.001 0.007-0.001 0.014 0.002 0.018s0.007 0.007 0.013 0.009l0.007 0.002 0.002 0.007c0.002 0.010 0.008 0.021 0.016 0.027s0.017 0.010 0.028 0.011c0.022 0 0.045-0.012 0.065-0.025 0.041-0.028 0.077-0.066 0.111-0.104 0.068-0.078 0.131-0.16 0.193-0.243s0.122-0.167 0.183-0.251c0.026-0.002-0.025-0.041 0.066-0.013-0.010 0.030-0.014 0.029-0.022 0.045-0.013 0.023-0.026 0.045-0.041 0.068-0.029 0.045-0.062 0.086-0.094 0.127-0.065 0.082-0.135 0.159-0.191 0.242-0.014 0.021-0.026 0.041-0.036 0.062s-0.017 0.042-0.019 0.059c-0.001 0.018 0.002 0.030 0.011 0.041 0.004 0.006 0.011 0.011 0.018 0.016 0.009 0.006 0.014 0.009 0.027 0.015 0.040 0.019 0.088 0.032 0.135 0.041s0.097 0.014 0.146 0.015c0.098 0.003 0.196-0.009 0.288-0.036s0.176-0.072 0.243-0.135c0.033-0.031 0.062-0.067 0.085-0.106 0.011-0.020 0.022-0.040 0.031-0.061 0.002-0.006 0.009-0.024 0.011-0.031 0.003-0.009 0.006-0.021 0.009-0.033 0.011-0.047 0.019-0.097 0.027-0.147s0.014-0.101 0.020-0.152 0.022-0.205 0.032-0.307c0.037-0.411 0.064-0.825 0.092-1.238l0.081-1.241c0.028-0.414 0.058-0.828 0.095-1.241 0.019-0.207 0.040-0.414 0.067-0.621 0.007-0.052 0.014-0.104 0.023-0.155l0.026-0.154c0.008-0.051 0.018-0.102 0.025-0.153l0.021-0.152c0.027-0.204 0.040-0.408 0.042-0.613l-0.001-0.311c0-0.105 0.006-0.211 0.018-0.316s0.031-0.209 0.053-0.312c0.025-0.105 0.058-0.204 0.090-0.303 0.066-0.197 0.137-0.392 0.207-0.588 0.14-0.39 0.279-0.78 0.406-1.174s0.245-0.791 0.338-1.193c0.046-0.201 0.086-0.403 0.114-0.607s0.045-0.409 0.036-0.612c-0.005-0.101-0.017-0.202-0.042-0.298s-0.063-0.188-0.121-0.264c-0.126-0.158-0.268-0.309-0.43-0.428-0.081-0.058-0.168-0.11-0.259-0.137-0.023-0.007-0.045-0.011-0.067-0.013s-0.042-0.001-0.058 0.005c-0.016 0.005-0.024 0.013-0.028 0.023s-0.005 0.027-0.001 0.046c0.009 0.038 0.034 0.079 0.064 0.116s0.065 0.072 0.102 0.104c0.073 0.062 0.162 0.11 0.253 0.153 0.184 0.085 0.38 0.147 0.578 0.199s0.4 0.093 0.603 0.127c0.406 0.066 0.818 0.101 1.23 0.108s0.824-0.016 1.231-0.074c0.102-0.015 0.203-0.031 0.304-0.051 0.050-0.010 0.101-0.020 0.151-0.031s0.104-0.021 0.156-0.029c0.21-0.032 0.421-0.040 0.631-0.034 0.42 0.014 0.834 0.084 1.24 0.179s0.804 0.217 1.198 0.35c0.197 0.066 0.392 0.137 0.588 0.205 0.049 0.017 0.098 0.034 0.147 0.050s0.098 0.032 0.146 0.044c0.012 0.003 0.024 0.006 0.035 0.007s0.024 0.003 0.026 0.002c-0.015 0.003-0.013 0.044-0.016 0.021-0.005-0.007-0.013-0.016-0.022-0.025-0.035-0.034-0.076-0.066-0.116-0.097-0.161-0.125-0.35-0.211-0.55-0.246s-0.409-0.018-0.605 0.038c-0.197 0.056-0.382 0.151-0.551 0.268s-0.322 0.257-0.46 0.41c-0.276 0.307-0.494 0.663-0.666 1.038-0.021 0.047-0.043 0.094-0.063 0.142s-0.040 0.096-0.063 0.143c-0.045 0.095-0.097 0.186-0.155 0.274-0.115 0.175-0.249 0.337-0.394 0.488s-0.3 0.291-0.462 0.423c-0.162 0.132-0.331 0.255-0.504 0.372-0.347 0.232-0.712 0.437-1.089 0.616-0.188 0.090-0.38 0.173-0.574 0.249s-0.392 0.145-0.593 0.204c-0.201 0.059-0.405 0.108-0.613 0.139-0.104 0.015-0.21 0.026-0.316 0.027-0.053 0-0.107-0.002-0.161-0.009s-0.109-0.018-0.162-0.043c-0.026-0.012-0.053-0.028-0.075-0.051-0.011-0.011-0.021-0.024-0.030-0.037-0.008-0.012-0.016-0.033-0.018-0.049-0.006-0.035 0.003-0.068 0.015-0.096s0.029-0.051 0.047-0.072c0.035-0.043 0.075-0.078 0.117-0.112s0.085-0.063 0.128-0.092c0.176-0.114 0.362-0.207 0.551-0.294 0.378-0.173 0.767-0.319 1.163-0.444s0.798-0.231 1.205-0.313c0.407-0.082 0.82-0.14 1.236-0.161 0.208-0.010 0.417-0.009 0.626 0.006s0.417 0.046 0.621 0.101c0.203 0.055 0.403 0.135 0.581 0.254 0.089 0.059 0.173 0.128 0.247 0.207l0.21 0.231c0.277 0.309 0.55 0.623 0.817 0.939 0.537 0.633 1.059 1.277 1.581 1.922 0.261 0.322 0.521 0.645 0.787 0.961l0.1 0.119 0.102 0.117c0.067 0.079 0.137 0.154 0.206 0.23 0.141 0.152 0.285 0.303 0.412 0.471 0.032 0.042 0.062 0.086 0.089 0.133s0.051 0.096 0.067 0.149c0.016 0.053 0.024 0.109 0.024 0.163s-0.005 0.107-0.010 0.16c-0.012 0.104-0.027 0.206-0.036 0.308-0.004 0.051-0.008 0.104-0.015 0.156s-0.014 0.104-0.023 0.155c-0.037 0.206-0.092 0.408-0.161 0.605-0.034 0.099-0.073 0.196-0.115 0.291s-0.090 0.189-0.148 0.278c-0.029 0.044-0.060 0.088-0.098 0.128-0.019 0.020-0.040 0.039-0.064 0.055-0.012 0.008-0.026 0.015-0.041 0.020-0.013 0.005-0.035 0.008-0.046 0.008-0.054 0.002-0.11-0.001-0.165-0.021-0.027-0.010-0.054-0.026-0.076-0.048s-0.037-0.053-0.042-0.083c-0.005-0.030-0.003-0.061 0.004-0.088s0.017-0.054 0.029-0.079c0.006-0.012 0.012-0.024 0.019-0.036l0.019-0.034 0.039-0.067 0.040-0.067c0.014-0.023 0.026-0.044 0.043-0.068 0.008-0.034 0.1 0.053 0.053 0.040-0.005 0.013-0.010 0.025-0.015 0.037-0.010 0.024-0.021 0.048-0.031 0.072-0.005 0.011-0.011 0.025-0.017 0.036s-0.012 0.024-0.019 0.036-0.029 0.047-0.046 0.068c-0.035 0.043-0.078 0.079-0.126 0.106-0.097 0.054-0.208 0.071-0.314 0.070-0.053-0-0.106-0.004-0.158-0.011l-0.078-0.010c-0.026-0.004-0.051-0.006-0.081-0.015-0.008 0.003-0.053-0.025-0.039-0.060 0.008-0.021 0.017-0.029 0.026-0.041l0.050-0.060c0.016-0.020 0.032-0.040 0.047-0.060 0.008-0.010 0.015-0.020 0.022-0.031l0.023-0.032c0.063-0.084 0.13-0.164 0.199-0.242 0.017-0.020 0.035-0.039 0.053-0.058l0.027-0.029c0.020 0.013-0.006-0.069 0.060 0.019-0.017 0.023-0.034 0.041-0.051 0.062s-0.034 0.039-0.052 0.059c-0.071 0.077-0.148 0.149-0.229 0.216-0.041 0.033-0.083 0.065-0.128 0.093-0.023 0.014-0.046 0.028-0.075 0.038-0.015 0.004-0.029 0.012-0.057 0.002-0.033-0.017-0.028-0.050-0.026-0.063 0.003-0.016 0.008-0.030 0.013-0.043s0.011-0.024 0.019-0.038c0.015-0.025 0.033-0.046 0.052-0.066 0.039-0.039 0.084-0.069 0.129-0.097 0.091-0.054 0.185-0.098 0.275-0.147s0.177-0.103 0.257-0.166c0.010-0.008 0.019-0.015 0.028-0.024 0.008-0.008 0.016-0.017 0.024-0.026 0.015-0.019 0.029-0.039 0.042-0.060 0.025-0.043 0.046-0.089 0.063-0.137 0.035-0.095 0.058-0.195 0.076-0.296s0.031-0.203 0.041-0.306c0.019-0.205 0.027-0.412 0.024-0.618l-0.001-0.038c-0-0.012-0-0.026-0.003-0.034-0.004-0.021-0.013-0.045-0.024-0.067-0.021-0.045-0.047-0.089-0.074-0.132-0.055-0.086-0.115-0.17-0.178-0.252-0.125-0.164-0.257-0.324-0.392-0.481-0.27-0.314-0.551-0.618-0.839-0.916-0.144-0.149-0.29-0.296-0.432-0.448s-0.279-0.309-0.408-0.472c-0.258-0.326-0.485-0.683-0.634-1.075-0.075-0.196-0.129-0.399-0.158-0.607s-0.031-0.42-0.006-0.628c0.023-0.209 0.076-0.413 0.146-0.611 0.036-0.098 0.078-0.195 0.122-0.289 0.046-0.094 0.095-0.186 0.149-0.276 0.027-0.045 0.055-0.089 0.083-0.133s0.057-0.087 0.086-0.13 0.117-0.172 0.178-0.256c0.123-0.168 0.253-0.332 0.398-0.483 0.073-0.075 0.15-0.147 0.234-0.212s0.176-0.122 0.28-0.156c0.052-0.017 0.107-0.028 0.164-0.026s0.113 0.015 0.164 0.040c0.051 0.025 0.095 0.061 0.133 0.101s0.069 0.085 0.096 0.131c0.054 0.093 0.092 0.193 0.123 0.294s0.053 0.204 0.072 0.307c0.037 0.206 0.056 0.414 0.067 0.622 0.006 0.104 0.008 0.208 0.010 0.312s0.006 0.207 0.011 0.31 0.024 0.413 0.045 0.618c0.042 0.411 0.109 0.819 0.212 1.218s0.245 0.788 0.437 1.152c0.192 0.363 0.434 0.7 0.728 0.987 0.073 0.072 0.15 0.14 0.227 0.211l0.229 0.211c0.076 0.071 0.152 0.142 0.226 0.215s0.148 0.147 0.217 0.228c0.034 0.041 0.068 0.083 0.097 0.129s0.055 0.096 0.072 0.15c0.018 0.053 0.026 0.108 0.031 0.162s0.006 0.106 0.007 0.158 0.005 0.206 0.012 0.309l0.011 0.155 0.012 0.154c0.034 0.413 0.074 0.825 0.112 1.238 0.019 0.207 0.037 0.413 0.053 0.62l0.011 0.155c0.003 0.052 0.007 0.104 0.009 0.156l0.004 0.078c0.001 0.026 0.001 0.053 0.002 0.079s0.001 0.052 0.001 0.078l-0.001 0.078c-0.001 0.052-0.002 0.105-0.006 0.158s-0.009 0.106-0.021 0.161c-0.012 0.054-0.029 0.11-0.063 0.161-0.017 0.025-0.039 0.049-0.064 0.067s-0.053 0.032-0.082 0.042c-0.029 0.009-0.057 0.015-0.086 0.018-0.014 0.001-0.029 0.003-0.041 0.003s-0.024 0.002-0.037 0.003-0.049 0.006-0.072 0.011c-0.012 0.002-0.024 0.005-0.037 0.008-0.016-0.004-0.018 0.024-0.082-0.013-0.030-0.047-0.016-0.051-0.022-0.067l-0.003-0.039c-0.002-0.025-0.004-0.050-0.008-0.075s-0.007-0.050-0.012-0.075c-0.002-0.012-0.005-0.026-0.007-0.040s-0.004-0.027-0.005-0.041c-0.010-0.109-0.002-0.217 0.019-0.323 0.005-0.027 0.012-0.053 0.019-0.079s0.017-0.053 0.030-0.080c0.007-0.014 0.014-0.028 0.028-0.044-0.005-0.025 0.099-0.037 0.107 0.006 0.014 0.023 0.016 0.038 0.019 0.053s0.005 0.029 0.006 0.043 0.003 0.055 0.003 0.082l-0 0.078c-0 0.052-0.001 0.104-0.003 0.157s-0.005 0.105-0.011 0.159c-0.006 0.054-0.015 0.108-0.037 0.164-0.011 0.028-0.027 0.056-0.050 0.081s-0.056 0.044-0.089 0.052c-0.033 0.009-0.067 0.007-0.090 0.006s-0.049 0.001-0.073 0.003-0.102 0.010-0.156 0.013c-0.027 0.002-0.055 0.002-0.084 0s-0.059-0.006-0.090-0.018c-0.031-0.011-0.062-0.033-0.083-0.062-0.010-0.015-0.019-0.030-0.024-0.046s-0.010-0.033-0.012-0.045c-0.010-0.058-0.010-0.112-0.007-0.167 0.007-0.109 0.028-0.215 0.068-0.318 0.020-0.051 0.045-0.101 0.078-0.148s0.075-0.089 0.127-0.12c0.026-0.015 0.054-0.027 0.084-0.035 0.016-0.004 0.028-0.006 0.040-0.009l0.038-0.008c0.012 0.041 0.024-0.104 0.056 0.090l-0.034 0.017c-0.022 0.011-0.043 0.024-0.063 0.037-0.081 0.053-0.149 0.124-0.183 0.209-0.009 0.021-0.015 0.043-0.019 0.066l-0.007 0.038-0.007 0.039c-0.010 0.052-0.022 0.104-0.037 0.156s-0.033 0.104-0.065 0.155c-0.008 0.013-0.017 0.026-0.029 0.038s-0.027 0.025-0.047 0.034c-0.020 0.009-0.047 0.012-0.070 0.005s-0.039-0.017-0.053-0.028c-0.014-0.012-0.023-0.021-0.035-0.038-0.010-0.014-0.017-0.028-0.023-0.042-0.012-0.028-0.020-0.056-0.026-0.083-0.012-0.055-0.016-0.111-0.015-0.166 0.002-0.11 0.026-0.22 0.076-0.321 0.025-0.050 0.057-0.098 0.095-0.139s0.084-0.077 0.133-0.105c0.025-0.014 0.050-0.026 0.076-0.036l0.037-0.014 0.037-0.014c0.050-0.018 0.102-0.033 0.148-0.048 0.023-0.008 0.044-0.017 0.055-0.026 0.006-0.005 0.010-0.009 0.013-0.015s0.006-0.014 0.009-0.023c0.005-0.019 0.006-0.043 0.007-0.067s-0-0.050-0.001-0.075c-0.004-0.102-0.012-0.206-0.018-0.309l-0.016-0.311c-0.012-0.205-0.032-0.41-0.074-0.609-0.010-0.050-0.022-0.099-0.036-0.148s-0.029-0.097-0.046-0.144c-0.035-0.095-0.078-0.186-0.13-0.273s-0.111-0.171-0.174-0.252l-0.024-0.030c-0.007-0.009-0.017-0.021-0.024-0.032s-0.016-0.023-0.023-0.035c-0.007-0.012-0.014-0.023-0.020-0.035-0.026-0.046-0.049-0.094-0.071-0.141-0.043-0.095-0.082-0.192-0.12-0.289s-0.073-0.195-0.107-0.293c-0.069-0.196-0.134-0.393-0.195-0.591s-0.119-0.398-0.174-0.598c-0.109-0.401-0.206-0.804-0.286-1.212-0.040-0.204-0.076-0.408-0.106-0.614s-0.055-0.412-0.069-0.62c-0.007-0.104-0.012-0.208-0.014-0.313-0.001-0.052-0-0.105 0-0.156s0-0.103-0.001-0.155c-0.004-0.206-0.017-0.412-0.037-0.618-0.039-0.411-0.1-0.821-0.175-1.227-0.038-0.203-0.079-0.406-0.125-0.607s-0.096-0.402-0.152-0.6c-0.028-0.099-0.058-0.197-0.093-0.293-0.017-0.048-0.035-0.095-0.056-0.139-0.010-0.022-0.022-0.043-0.033-0.059-0.003-0.007-0.015-0.014-0.002-0.006 0.038 0.010 0.054-0.025 0.045-0.012-0.001 0.002-0.005 0.017-0.005 0.025-0.001 0.005-0.001 0.016 0 0.023 0.002 0.016 0.009 0.032 0.020 0.049 0.022 0.034 0.057 0.067 0.095 0.099 0.076 0.064 0.162 0.124 0.244 0.189 0.166 0.129 0.323 0.273 0.461 0.434s0.258 0.336 0.362 0.52c0.104 0.184 0.19 0.376 0.264 0.573 0.037 0.098 0.070 0.198 0.1 0.298l0.022 0.075 0.021 0.076 0.041 0.15c0.054 0.2 0.109 0.399 0.167 0.598s0.119 0.395 0.189 0.589c0.070 0.193 0.148 0.384 0.245 0.562s0.216 0.346 0.37 0.472c0.077 0.063 0.162 0.115 0.254 0.152s0.189 0.061 0.289 0.073c0.199 0.023 0.404 0.001 0.604-0.040 0.025-0.006 0.050-0.011 0.075-0.017l0.037-0.009c0.011-0.003 0.031-0.007 0.043-0.008 0.054-0.007 0.107-0.009 0.161-0.010 0.106-0.001 0.211 0.008 0.316 0.021l0.078 0.011 0.077 0.013c0.048 0.008 0.097 0.010 0.146 0.007 0.099-0.006 0.197-0.029 0.29-0.065 0.187-0.070 0.357-0.191 0.48-0.348s0.198-0.351 0.219-0.55c0.011-0.1 0.010-0.201-0.001-0.303-0.002-0.026-0.006-0.050-0.009-0.075s-0.008-0.050-0.013-0.075-0.021-0.099-0.036-0.147c-0.029-0.097-0.069-0.19-0.12-0.276s-0.114-0.165-0.188-0.233c-0.147-0.136-0.336-0.223-0.535-0.257s-0.405-0.020-0.603 0.028c-0.049 0.012-0.099 0.026-0.147 0.042l-0.036 0.012-0.036 0.014c-0.023 0.009-0.045 0.019-0.068 0.030-0.089 0.045-0.169 0.106-0.236 0.18s-0.119 0.161-0.158 0.253c-0.039 0.093-0.064 0.191-0.078 0.291-0.028 0.201-0.013 0.408 0.039 0.604 0.026 0.098 0.061 0.194 0.106 0.285s0.101 0.176 0.169 0.25c0.034 0.037 0.071 0.070 0.111 0.1 0.010 0.008 0.020 0.014 0.031 0.021s0.022 0.014 0.033 0.021l0.066 0.040c0.022 0.013 0.044 0.026 0.066 0.038 0.011 0.006 0.022 0.012 0.032 0.016 0.032-0.001-0.012 0.008-0.011 0.032-0.002-0.006-0.011-0.017-0.018-0.026s-0.016-0.020-0.024-0.029-0.033-0.039-0.050-0.058c-0.137-0.155-0.275-0.313-0.391-0.488-0.029-0.044-0.056-0.089-0.082-0.135-0.013-0.023-0.025-0.047-0.036-0.071s-0.022-0.047-0.033-0.071c-0.042-0.096-0.081-0.193-0.106-0.297-0.006-0.026-0.011-0.053-0.011-0.082 0.002-0.015-0.003-0.030 0.016-0.055 0.034-0.027 0.059-0.002 0.069 0.004 0.024 0.020 0.040 0.042 0.055 0.064s0.029 0.045 0.042 0.068 0.049 0.093 0.072 0.139c0.023 0.045 0.048 0.090 0.074 0.135 0.105 0.177 0.226 0.345 0.361 0.5 0.068 0.077 0.139 0.152 0.215 0.22s0.158 0.131 0.248 0.176c0.045 0.022 0.094 0.042 0.141 0.059s0.097 0.034 0.145 0.040c0.011 0.001 0.024 0.001 0.030-0.001 0-0.002-0.002 0.013-0.005-0.001-0.011-0.017-0.032-0.034-0.051-0.049s-0.041-0.030-0.062-0.043c-0.022-0.014-0.044-0.028-0.065-0.043-0.172-0.119-0.332-0.252-0.481-0.399s-0.285-0.306-0.4-0.48c-0.057-0.087-0.109-0.178-0.153-0.273-0.043-0.095-0.082-0.192-0.116-0.291-0.017-0.050-0.032-0.1-0.043-0.152-0.005-0.026-0.010-0.052-0.008-0.082 0.002-0.012 0.001-0.039 0.033-0.045 0.026 0.001 0.035 0.014 0.046 0.023 0.020 0.020 0.035 0.043 0.049 0.066s0.025 0.047 0.036 0.071c0.011 0.024 0.019 0.049 0.030 0.072s0.021 0.047 0.032 0.070c0.092 0.184 0.203 0.36 0.321 0.529s0.247 0.332 0.392 0.478c0.036 0.036 0.074 0.072 0.113 0.105s0.080 0.065 0.121 0.096 0.167 0.121 0.255 0.176c0.044 0.027 0.088 0.054 0.134 0.077 0.023 0.012 0.046 0.023 0.069 0.032 0.012 0.005 0.023 0.009 0.035 0.012s0.024 0.005 0.032 0.004c0.006-0.001 0.004-0.001 0.002-0.014-0.003-0.010-0.009-0.021-0.016-0.032s-0.014-0.021-0.021-0.031c-0.008-0.010-0.016-0.021-0.024-0.029-0.033-0.037-0.073-0.071-0.113-0.103-0.081-0.064-0.166-0.123-0.249-0.185s-0.166-0.125-0.245-0.193c-0.078-0.068-0.153-0.142-0.22-0.222-0.033-0.040-0.065-0.082-0.094-0.125s-0.056-0.088-0.082-0.132c-0.107-0.177-0.216-0.354-0.321-0.533-0.052-0.090-0.103-0.18-0.148-0.275-0.011-0.024-0.021-0.048-0.030-0.074-0.004-0.013-0.008-0.026-0.009-0.041-0.004-0.017 0.012-0.039 0.026-0.043 0.014-0.008 0.033-0.009 0.047-0.004s0.027 0.012 0.038 0.021c0.022 0.017 0.039 0.038 0.055 0.059 0.032 0.043 0.058 0.088 0.083 0.134s0.047 0.093 0.068 0.141c0.043 0.093 0.102 0.178 0.162 0.262 0.122 0.166 0.258 0.323 0.398 0.475s0.288 0.297 0.448 0.428c0.040 0.033 0.081 0.063 0.124 0.092l0.128 0.088c0.043 0.029 0.085 0.059 0.129 0.084 0.022 0.012 0.045 0.024 0.068 0.030s0.046 0.005 0.067-0.004c0.011-0.005 0.021-0.010 0.033-0.017 0.010-0.006 0.020-0.014 0.028-0.022s0.015-0.017 0.017-0.026c0.002-0.008-0.001-0.016-0.007-0.024-0.014-0.015-0.039-0.025-0.062-0.032s-0.049-0.012-0.074-0.016-0.101-0.010-0.152-0.006c-0.025 0.002-0.051 0.005-0.076 0.008-0.013 0.002-0.025 0.004-0.040 0.005-0.047-0.036 0.010-0.039 0.006-0.047 0.022-0.015 0.043-0.030 0.065-0.044s0.045-0.026 0.068-0.039 0.092-0.048 0.139-0.071 0.186-0.092 0.277-0.141c0.023-0.012 0.045-0.025 0.067-0.038s0.044-0.027 0.062-0.043c0.009-0.006 0.016-0.022 0.015-0.016 0-0.001-0.012-0.006-0.023-0.005-0.023-0-0.049 0.005-0.073 0.010-0.099 0.024-0.195 0.063-0.29 0.105s-0.186 0.088-0.276 0.141c-0.046 0.025-0.093 0.049-0.146 0.063-0.013 0.003-0.027 0.006-0.042 0.006-0.011 0.004-0.046-0.011-0.038-0.038 0.005-0.018 0.015-0.028 0.024-0.039s0.020-0.019 0.030-0.028c0.042-0.034 0.087-0.061 0.132-0.086s0.093-0.048 0.14-0.070 0.189-0.086 0.284-0.128c0.047-0.021 0.095-0.042 0.141-0.064s0.093-0.045 0.136-0.072c0.010-0.007 0.021-0.014 0.030-0.022s0.016-0.017 0.014-0.020c-0.002-0.011-0.005-0.020-0.012-0.025s-0.018-0.008-0.029-0.009c-0.023-0.001-0.048 0.003-0.073 0.009s-0.049 0.013-0.073 0.021c-0.097 0.033-0.192 0.075-0.286 0.118s-0.187 0.089-0.278 0.138c-0.046 0.024-0.091 0.050-0.136 0.075l-0.068 0.038c-0.023 0.012-0.046 0.025-0.071 0.036-0.013 0.002-0.027 0.018-0.053-0.003-0.012-0.024-0.003-0.036-0.002-0.050 0.003-0.012 0.008-0.028 0.016-0.040s0.015-0.023 0.024-0.034c0.035-0.041 0.077-0.074 0.119-0.104 0.085-0.061 0.176-0.113 0.267-0.162s0.186-0.094 0.281-0.136c0.095-0.042 0.191-0.080 0.284-0.125 0.023-0.011 0.046-0.023 0.066-0.037 0.010-0.006 0.020-0.015 0.023-0.021 0.002 0.001-0.001-0.003-0.012-0.009-0.006-0.002-0.020-0.003-0.032-0.003s-0.025 0.002-0.037 0.003-0.050 0.008-0.075 0.014c-0.1 0.023-0.198 0.057-0.293 0.096s-0.189 0.083-0.279 0.133c-0.045 0.025-0.090 0.051-0.133 0.078s-0.089 0.054-0.135 0.079c-0.046 0.025-0.092 0.049-0.14 0.071-0.024 0.011-0.049 0.021-0.074 0.029-0.013 0.004-0.026 0.008-0.040 0.010s-0.028 0.005-0.047-0.002c-0.025-0.008-0.025-0.042-0.018-0.053 0.005-0.015 0.013-0.026 0.020-0.038 0.015-0.023 0.033-0.043 0.051-0.062 0.036-0.039 0.076-0.074 0.119-0.104 0.085-0.062 0.175-0.114 0.267-0.163s0.186-0.094 0.281-0.136c0.095-0.042 0.191-0.082 0.29-0.117 0.025-0.009 0.049-0.017 0.075-0.024 0.013-0.004 0.024-0.007 0.036-0.011s0.022-0.010 0.033-0.015 0.040-0.027 0.056-0.045c0.015-0.018 0.027-0.039 0.032-0.061s-0.001-0.043-0.016-0.056c-0.015-0.013-0.038-0.018-0.062-0.018s-0.048 0.006-0.072 0.013c-0.024 0.007-0.048 0.015-0.072 0.025-0.095 0.037-0.188 0.084-0.279 0.132s-0.181 0.1-0.269 0.154c-0.088 0.054-0.175 0.11-0.259 0.169-0.042 0.030-0.084 0.060-0.124 0.093s-0.083 0.065-0.13 0.090c-0.024 0.013-0.049 0.024-0.076 0.031-0.014 0.004-0.028 0.006-0.043 0.006s-0.031-0.002-0.047-0.012c-0.016-0.009-0.026-0.029-0.026-0.047s0.005-0.032 0.012-0.046c0.014-0.026 0.034-0.046 0.056-0.063s0.044-0.030 0.066-0.044l0.066-0.041 0.133-0.081c0.177-0.108 0.353-0.216 0.525-0.331 0.086-0.058 0.171-0.116 0.251-0.18 0.040-0.032 0.080-0.065 0.11-0.103 0.007-0.009 0.014-0.019 0.017-0.028 0.002-0.005 0.002-0.022 0.002-0.031-0.002-0.012-0.003-0.013-0.005-0.013-0.005-0.001-0.018 0.002-0.028 0.007-0.022 0.009-0.045 0.021-0.067 0.033s-0.045 0.025-0.067 0.039l-0.134 0.079c-0.090 0.053-0.18 0.104-0.271 0.154s-0.18 0.1-0.265 0.159c-0.085 0.058-0.165 0.123-0.235 0.197l-0.053 0.057c-0.009 0.010-0.019 0.020-0.031 0.029s-0.033 0.017-0.051 0.013c-0.018-0.004-0.028-0.009-0.041-0.015s-0.024-0.011-0.036-0.017-0.047-0.024-0.070-0.037c-0.023-0.013-0.045-0.027-0.067-0.042s-0.043-0.030-0.063-0.054c-0.012-0.003-0.021-0.053 0.010-0.062 0.019-0.007 0.032-0.006 0.046-0.006 0.027 0.001 0.053 0.003 0.079 0.005 0.104 0.009 0.206 0.023 0.309 0.027 0.026 0.001 0.051 0.001 0.076-0s0.050-0.004 0.070-0.012c0.010-0.004 0.016-0.010 0.016-0.013 0.002-0.003-0.001-0.014-0.005-0.023-0.008-0.017-0.027-0.032-0.048-0.041-0.043-0.020-0.094-0.028-0.144-0.034s-0.102-0.008-0.154-0.009l-0.155-0.003c-0.053-0.002-0.107-0.007-0.16-0.029-0.013-0.006-0.026-0.012-0.039-0.023-0.011-0.009-0.028-0.032-0.017-0.057 0.011-0.022 0.028-0.028 0.042-0.034s0.028-0.008 0.042-0.010c0.014-0.002 0.027-0.003 0.041-0.003l0.039-0.001 0.078-0.001c0.104-0.001 0.207-0.003 0.31-0.007s0.206-0.010 0.308-0.024c0.025-0.003 0.051-0.007 0.075-0.012s0.049-0.011 0.072-0.019c0.012-0.004 0.022-0.009 0.032-0.014 0.011-0.003 0.015-0.018 0.013-0.003 0.004 0.004-0.009-0.006-0.019-0.008-0.011-0.004-0.023-0.007-0.035-0.010-0.049-0.010-0.1-0.016-0.151-0.020s-0.103-0.007-0.154-0.010-0.206-0.006-0.31-0.006c-0.103 0-0.206 0.005-0.31 0.008-0.052 0.002-0.104 0.004-0.157 0.002-0.027-0.001-0.053-0.003-0.083-0.012-0.014-0.005-0.032-0.013-0.043-0.031s-0.009-0.039-0.006-0.053c0.005-0.016 0.005-0.026 0.018-0.046 0.013-0.015 0.026-0.021 0.039-0.028 0.026-0.012 0.052-0.020 0.077-0.027 0.052-0.014 0.103-0.023 0.155-0.030 0.104-0.015 0.208-0.023 0.312-0.027s0.208-0.005 0.313-0.001c0.104 0.004 0.209 0.013 0.312 0.032 0.052 0.010 0.104 0.023 0.154 0.045 0.012 0.005 0.023 0.010 0.035 0.014s0.023 0.008 0.035 0.011c0.012 0.003 0.023 0.005 0.034 0.006s0.022-0 0.029-0.003c0.007-0.003 0.007-0.004 0.008-0.009s-0.003-0.014-0.009-0.023c-0.011-0.018-0.030-0.034-0.049-0.048-0.039-0.028-0.085-0.049-0.133-0.066-0.095-0.033-0.197-0.049-0.298-0.055-0.103-0.006-0.206-0.009-0.309-0.006-0.051 0.002-0.102 0.006-0.153 0.012s-0.101 0.015-0.151 0.026c-0.099 0.023-0.195 0.058-0.283 0.109-0.044 0.025-0.085 0.054-0.124 0.087s-0.075 0.068-0.107 0.107c-0.017 0.019-0.031 0.040-0.047 0.060-0.014 0.021-0.029 0.041-0.042 0.063-0.027 0.043-0.050 0.088-0.072 0.134-0.010 0.023-0.020 0.047-0.030 0.070s-0.019 0.048-0.026 0.072c-0.004 0.012-0.008 0.025-0.011 0.036s-0.006 0.024-0.009 0.036-0.010 0.049-0.013 0.075c-0.014 0.1-0.012 0.203-0 0.304 0.025 0.202 0.091 0.4 0.188 0.579s0.225 0.343 0.377 0.48c0.152 0.136 0.329 0.245 0.519 0.321s0.392 0.12 0.597 0.135c0.102 0.008 0.205 0.008 0.308 0.003 0.026-0.002 0.051-0.003 0.077-0.005s0.051-0.004 0.077-0.007l0.077-0.009 0.077-0.010c0.412-0.052 0.825-0.098 1.242-0.104 0.208-0.003 0.417 0.006 0.624 0.036s0.412 0.086 0.601 0.18c0.189 0.093 0.358 0.225 0.499 0.381 0.071 0.078 0.135 0.16 0.194 0.246s0.112 0.177 0.16 0.27c0.096 0.185 0.175 0.378 0.251 0.571 0.038 0.096 0.076 0.193 0.116 0.288s0.082 0.189 0.131 0.28c0.049 0.090 0.105 0.177 0.175 0.25 0.035 0.037 0.075 0.069 0.117 0.095s0.090 0.045 0.139 0.057c0.099 0.022 0.203 0.012 0.301-0.016 0.099-0.028 0.203-0.051 0.306-0.062 0.207-0.024 0.419-0.004 0.619 0.054 0.050 0.015 0.099 0.032 0.148 0.051s0.096 0.041 0.142 0.065 0.091 0.050 0.135 0.078c0.044 0.028 0.086 0.058 0.126 0.092l-0.004 0.005c-0.325-0.256-0.754-0.374-1.162-0.323-0.103 0.012-0.202 0.035-0.302 0.064s-0.209 0.041-0.314 0.019c-0.052-0.012-0.103-0.031-0.148-0.058s-0.088-0.061-0.124-0.099c-0.074-0.076-0.132-0.164-0.183-0.256s-0.094-0.186-0.135-0.282c-0.041-0.096-0.080-0.192-0.119-0.288-0.078-0.192-0.158-0.383-0.254-0.565-0.048-0.091-0.101-0.18-0.159-0.264s-0.123-0.165-0.192-0.24c-0.139-0.151-0.303-0.277-0.486-0.367s-0.383-0.144-0.586-0.174c-0.203-0.030-0.41-0.038-0.616-0.036-0.413 0.006-0.825 0.050-1.236 0.102l-0.077 0.010-0.078 0.009c-0.026 0.003-0.052 0.005-0.078 0.007s-0.052 0.003-0.078 0.005c-0.105 0.005-0.209 0.004-0.314-0.004-0.209-0.016-0.416-0.061-0.611-0.139s-0.377-0.19-0.533-0.331c-0.156-0.14-0.288-0.308-0.387-0.493s-0.168-0.388-0.193-0.597c-0.012-0.105-0.014-0.211 0.001-0.316 0.004-0.026 0.008-0.052 0.014-0.078 0.003-0.013 0.006-0.026 0.010-0.039s0.007-0.026 0.011-0.038 0.018-0.050 0.027-0.074c0.010-0.024 0.020-0.049 0.031-0.073 0.023-0.048 0.046-0.095 0.075-0.14 0.013-0.023 0.029-0.044 0.044-0.066 0.016-0.021 0.032-0.043 0.049-0.062 0.034-0.041 0.072-0.078 0.113-0.112s0.085-0.065 0.131-0.091c0.092-0.054 0.193-0.090 0.296-0.113 0.052-0.012 0.104-0.020 0.156-0.027s0.105-0.010 0.157-0.012c0.105-0.004 0.209-0 0.313 0.006 0.105 0.007 0.21 0.023 0.311 0.058 0.050 0.018 0.1 0.040 0.144 0.072 0.022 0.016 0.044 0.035 0.061 0.061 0.008 0.013 0.016 0.028 0.016 0.050 0 0.023-0.020 0.044-0.037 0.049-0.017 0.006-0.033 0.006-0.048 0.006s-0.029-0.004-0.042-0.007c-0.014-0.004-0.027-0.008-0.039-0.013s-0.026-0.010-0.037-0.016c-0.045-0.020-0.094-0.033-0.144-0.042-0.1-0.019-0.203-0.027-0.306-0.032s-0.206-0.004-0.309 0.001c-0.103 0.004-0.206 0.012-0.307 0.027-0.051 0.007-0.101 0.016-0.15 0.029-0.024 0.006-0.048 0.014-0.069 0.024-0.010 0.005-0.020 0.011-0.024 0.017-0.002 0.001-0.007 0.018-0.009 0.026-0.002 0.010-0.001 0.018 0.001 0.022s0.009 0.009 0.019 0.012c0.020 0.007 0.046 0.009 0.071 0.010 0.050 0.002 0.102 0 0.154-0.001 0.103-0.004 0.207-0.008 0.311-0.008s0.208 0.001 0.312 0.006c0.052 0.002 0.104 0.005 0.156 0.010s0.104 0.010 0.157 0.021c0.013 0.003 0.026 0.006 0.040 0.011 0.013 0.007 0.029 0.006 0.044 0.034 0.004 0.043-0.023 0.044-0.032 0.053-0.013 0.007-0.026 0.012-0.039 0.017-0.026 0.009-0.052 0.015-0.078 0.020s-0.052 0.009-0.078 0.013c-0.104 0.014-0.208 0.019-0.312 0.023s-0.208 0.005-0.311 0.006l-0.078 0.001-0.039 0.001c-0.012 0-0.025 0.001-0.036 0.003s-0.023 0.004-0.033 0.008c-0.010 0.003-0.018 0.010-0.019 0.012-0.001-0-0.001 0.004 0.007 0.011s0.017 0.012 0.028 0.016c0.044 0.018 0.095 0.024 0.145 0.026l0.155 0.003c0.052 0.002 0.104 0.004 0.157 0.010 0.026 0.003 0.053 0.007 0.079 0.012s0.053 0.013 0.078 0.026c0.025 0.012 0.051 0.030 0.066 0.060 0.006 0.014 0.013 0.029 0.007 0.052-0.007 0.022-0.025 0.032-0.039 0.038-0.029 0.012-0.056 0.014-0.083 0.015s-0.053 0.001-0.080 0c-0.105-0.004-0.208-0.018-0.311-0.028-0.026-0.002-0.051-0.004-0.076-0.005-0.012-0-0.025 0.001-0.030 0.003-0 0.001 0-0.012 0.006 0.002 0.013 0.016 0.034 0.032 0.055 0.046s0.042 0.028 0.064 0.041c0.022 0.013 0.045 0.025 0.067 0.036 0.011 0.006 0.023 0.011 0.034 0.016s0.024 0.011 0.032 0.012c0.008 0.001 0.014-0 0.022-0.007s0.017-0.015 0.026-0.024l0.053-0.057c0.073-0.076 0.155-0.142 0.241-0.201s0.177-0.112 0.268-0.16c0.091-0.050 0.181-0.101 0.27-0.153l0.134-0.079c0.022-0.013 0.045-0.026 0.068-0.039s0.046-0.025 0.072-0.035c0.013-0.005 0.026-0.011 0.047-0.008 0.026 0.003 0.037 0.033 0.036 0.045 0 0.017 0.002 0.026-0.004 0.046-0.006 0.016-0.014 0.027-0.023 0.038-0.035 0.043-0.076 0.076-0.116 0.109-0.082 0.065-0.168 0.124-0.254 0.182-0.173 0.115-0.35 0.224-0.527 0.331l-0.133 0.081-0.066 0.041c-0.022 0.014-0.044 0.027-0.063 0.042s-0.036 0.033-0.047 0.052c-0.005 0.010-0.008 0.020-0.008 0.029s0.003 0.014 0.010 0.019c0.014 0.009 0.040 0.008 0.062 0.001s0.046-0.016 0.068-0.028c0.044-0.024 0.085-0.054 0.125-0.087s0.083-0.064 0.125-0.094 0.173-0.116 0.262-0.17c0.089-0.054 0.179-0.106 0.271-0.154s0.185-0.095 0.283-0.133c0.024-0.010 0.049-0.018 0.075-0.026s0.052-0.013 0.080-0.014c0.028-0 0.059 0.004 0.084 0.026 0.012 0.011 0.021 0.025 0.025 0.041s0.004 0.031 0.001 0.046c-0.006 0.029-0.021 0.055-0.039 0.076s-0.041 0.038-0.065 0.052c-0.012 0.007-0.024 0.012-0.037 0.017s-0.027 0.009-0.038 0.012c-0.024 0.007-0.049 0.015-0.073 0.024-0.097 0.034-0.193 0.074-0.287 0.115s-0.188 0.086-0.279 0.135c-0.091 0.049-0.18 0.1-0.263 0.161-0.042 0.030-0.080 0.063-0.114 0.1-0.017 0.019-0.034 0.038-0.048 0.058-0.007 0.010-0.013 0.021-0.017 0.030-0.003 0.012-0.003 0.013 0 0.014 0.006 0.002 0.019 0.002 0.030-0s0.024-0.005 0.036-0.009 0.048-0.017 0.071-0.027 0.092-0.044 0.138-0.069c0.045-0.025 0.090-0.051 0.133-0.078s0.089-0.054 0.135-0.079c0.091-0.050 0.186-0.095 0.282-0.134s0.196-0.073 0.298-0.097c0.026-0.006 0.051-0.011 0.078-0.014 0.013-0.002 0.026-0.003 0.040-0.003s0.027-0.001 0.045 0.005c0.010 0.003 0.038 0.020 0.027 0.048-0.010 0.018-0.022 0.024-0.033 0.033-0.023 0.015-0.046 0.027-0.070 0.039-0.094 0.046-0.19 0.084-0.285 0.126s-0.188 0.087-0.279 0.135c-0.091 0.049-0.181 0.1-0.264 0.16-0.041 0.030-0.082 0.062-0.114 0.1-0.008 0.009-0.015 0.019-0.021 0.029s-0.010 0.020-0.013 0.032c-0.003 0.010-0.004 0.027-0.003 0.026-0.006-0.001 0.010-0.001 0.020-0.006 0.022-0.009 0.045-0.022 0.068-0.034l0.068-0.038c0.045-0.025 0.091-0.051 0.136-0.075 0.092-0.049 0.185-0.095 0.279-0.138s0.19-0.085 0.289-0.119c0.025-0.008 0.050-0.016 0.076-0.022s0.052-0.011 0.081-0.009c0.014 0.001 0.030 0.004 0.044 0.015s0.021 0.028 0.023 0.042c0.002 0.024-0.014 0.035-0.023 0.045-0.011 0.009-0.022 0.017-0.033 0.024-0.045 0.028-0.092 0.051-0.139 0.074s-0.094 0.043-0.142 0.064-0.19 0.083-0.283 0.127c-0.047 0.022-0.093 0.045-0.138 0.070s-0.089 0.052-0.128 0.083c-0.010 0.008-0.019 0.016-0.027 0.025s-0.016 0.019-0.017 0.026c-0.001 0.003-0.001 0.003 0.012 0.005 0.011 0 0.023-0.002 0.035-0.005 0.048-0.013 0.094-0.035 0.139-0.060 0.089-0.053 0.183-0.1 0.278-0.142 0.048-0.021 0.096-0.041 0.145-0.059s0.098-0.035 0.15-0.047c0.026-0.006 0.052-0.011 0.080-0.011 0.014 0.002 0.031-0.001 0.047 0.021 0.006 0.033-0.014 0.037-0.022 0.048-0.021 0.018-0.043 0.032-0.066 0.046s-0.045 0.026-0.068 0.039c-0.092 0.049-0.185 0.095-0.278 0.141-0.046 0.023-0.093 0.046-0.138 0.071-0.023 0.012-0.045 0.025-0.067 0.038s-0.043 0.028-0.064 0.043c-0.014 0.003-0.015 0.029-0.022-0.002 0.011-0 0.024-0.003 0.037-0.004 0.026-0.004 0.052-0.007 0.078-0.009 0.052-0.004 0.106-0.002 0.158 0.006 0.026 0.004 0.052 0.009 0.078 0.017s0.052 0.017 0.074 0.040c0.011 0.011 0.018 0.031 0.013 0.048s-0.014 0.029-0.025 0.039c-0.010 0.010-0.021 0.018-0.033 0.025-0.011 0.007-0.024 0.014-0.036 0.019s-0.027 0.009-0.042 0.010c-0.015 0.001-0.029-0.001-0.043-0.005-0.027-0.008-0.051-0.020-0.074-0.033-0.046-0.027-0.088-0.056-0.131-0.085l-0.128-0.088c-0.043-0.029-0.086-0.060-0.126-0.093-0.081-0.066-0.158-0.136-0.232-0.208s-0.147-0.146-0.218-0.222c-0.141-0.152-0.277-0.31-0.4-0.477-0.061-0.085-0.12-0.17-0.165-0.266-0.021-0.047-0.044-0.094-0.068-0.139s-0.050-0.090-0.080-0.13c-0.015-0.020-0.032-0.039-0.050-0.054s-0.041-0.024-0.057-0.014c-0.010 0.006-0.013 0.007-0.012 0.018s0.004 0.023 0.007 0.035c0.008 0.024 0.018 0.047 0.028 0.071 0.043 0.093 0.095 0.183 0.147 0.273 0.104 0.179 0.213 0.355 0.32 0.533 0.027 0.044 0.053 0.089 0.082 0.131s0.060 0.084 0.093 0.123c0.066 0.079 0.14 0.151 0.217 0.219s0.16 0.13 0.243 0.192c0.083 0.061 0.169 0.12 0.25 0.185 0.041 0.033 0.081 0.067 0.116 0.106 0.009 0.010 0.017 0.020 0.025 0.030s0.016 0.022 0.023 0.033c0.007 0.012 0.014 0.023 0.019 0.038 0.008 0.010 0.002 0.047-0.023 0.048-0.018 0.003-0.031-0.001-0.045-0.004s-0.026-0.008-0.038-0.013-0.048-0.021-0.072-0.033-0.091-0.051-0.136-0.078-0.174-0.115-0.257-0.177c-0.042-0.031-0.083-0.063-0.123-0.096s-0.078-0.070-0.115-0.106c-0.147-0.148-0.276-0.312-0.396-0.481-0.060-0.085-0.117-0.172-0.172-0.26s-0.107-0.179-0.153-0.272c-0.012-0.024-0.023-0.047-0.033-0.071s-0.019-0.048-0.030-0.072c-0.010-0.023-0.022-0.046-0.035-0.067s-0.027-0.042-0.044-0.059c-0.007-0.008-0.019-0.015-0.021-0.014 0.003-0.003-0.003 0.004-0.003 0.016-0.002 0.022 0.002 0.048 0.007 0.072 0.010 0.050 0.026 0.099 0.042 0.147 0.034 0.097 0.073 0.193 0.115 0.287 0.044 0.093 0.095 0.182 0.152 0.268 0.114 0.171 0.249 0.329 0.396 0.473s0.307 0.276 0.477 0.392c0.021 0.014 0.043 0.028 0.065 0.042s0.044 0.029 0.065 0.045c0.011 0.008 0.021 0.017 0.031 0.026s0.020 0.019 0.029 0.033c0.013 0.005 0.015 0.057-0.016 0.062-0.019 0.006-0.033 0.004-0.048 0.003-0.056-0.007-0.105-0.024-0.155-0.041s-0.098-0.038-0.146-0.060c-0.096-0.047-0.18-0.112-0.259-0.181s-0.151-0.145-0.22-0.223c-0.137-0.157-0.261-0.326-0.368-0.506-0.027-0.045-0.052-0.090-0.077-0.137s-0.046-0.093-0.071-0.137c-0.013-0.022-0.026-0.044-0.040-0.064s-0.030-0.040-0.046-0.053c-0.009-0.009-0.014-0.003-0-0.009 0.002-0.004-0.003 0.009-0.002 0.020 0 0.022 0.005 0.047 0.011 0.071 0.024 0.098 0.063 0.194 0.104 0.287 0.011 0.024 0.021 0.047 0.032 0.070s0.022 0.046 0.035 0.068 0.051 0.088 0.080 0.131c0.114 0.17 0.251 0.325 0.389 0.48 0.017 0.019 0.034 0.039 0.052 0.059 0.009 0.010 0.017 0.020 0.025 0.031s0.017 0.021 0.025 0.038c0.019 0.062-0.079 0.054-0.063 0.043-0.014-0.006-0.026-0.012-0.037-0.018-0.024-0.013-0.046-0.026-0.069-0.039l-0.067-0.041c-0.011-0.007-0.022-0.013-0.033-0.021s-0.023-0.015-0.034-0.023c-0.044-0.032-0.084-0.068-0.12-0.107-0.073-0.079-0.132-0.168-0.179-0.263s-0.085-0.194-0.112-0.296c-0.054-0.204-0.071-0.418-0.043-0.629 0.014-0.105 0.041-0.209 0.082-0.308s0.097-0.192 0.169-0.272c0.072-0.081 0.159-0.147 0.255-0.196 0.012-0.006 0.024-0.012 0.036-0.018l0.038-0.016 0.036-0.014 0.038-0.013c0.050-0.017 0.101-0.031 0.152-0.044 0.205-0.050 0.42-0.067 0.631-0.031s0.413 0.127 0.572 0.273c0.079 0.072 0.147 0.157 0.202 0.248s0.098 0.19 0.128 0.292c0.016 0.051 0.028 0.102 0.038 0.154 0.005 0.026 0.009 0.052 0.014 0.078s0.008 0.053 0.010 0.079c0.011 0.105 0.013 0.212 0.002 0.318s-0.036 0.211-0.074 0.311c-0.039 0.1-0.092 0.195-0.158 0.279-0.132 0.17-0.313 0.299-0.513 0.375-0.1 0.038-0.206 0.064-0.314 0.071-0.054 0.004-0.109 0.002-0.164-0.007l-0.077-0.013-0.076-0.011c-0.101-0.012-0.203-0.020-0.304-0.019-0.050 0.001-0.101 0.003-0.15 0.010-0.014 0.002-0.019 0.003-0.034 0.007l-0.038 0.009c-0.025 0.006-0.051 0.012-0.077 0.018-0.205 0.043-0.418 0.069-0.632 0.045-0.107-0.012-0.212-0.037-0.313-0.077s-0.195-0.097-0.278-0.165c-0.042-0.034-0.082-0.071-0.119-0.109s-0.072-0.079-0.105-0.121c-0.066-0.084-0.123-0.174-0.175-0.266-0.103-0.184-0.186-0.378-0.26-0.573s-0.138-0.394-0.2-0.593c-0.061-0.199-0.118-0.399-0.174-0.598l-0.042-0.15-0.021-0.074-0.022-0.074c-0.030-0.098-0.063-0.195-0.099-0.291-0.071-0.192-0.155-0.378-0.254-0.556s-0.214-0.347-0.345-0.501c-0.131-0.155-0.28-0.293-0.441-0.42-0.080-0.064-0.163-0.124-0.246-0.194-0.041-0.036-0.083-0.073-0.117-0.127-0.017-0.027-0.031-0.059-0.035-0.095-0.002-0.018-0.003-0.034 0-0.055 0.003-0.018 0.004-0.028 0.012-0.050-0.001-0.009 0.035-0.074 0.1-0.053 0.038 0.018 0.042 0.033 0.054 0.047 0.019 0.027 0.031 0.052 0.042 0.077 0.023 0.050 0.041 0.1 0.059 0.15 0.035 0.1 0.064 0.2 0.092 0.301 0.055 0.201 0.103 0.404 0.147 0.607s0.083 0.408 0.119 0.612c0.071 0.41 0.127 0.822 0.161 1.237 0.017 0.207 0.028 0.415 0.029 0.624 0 0.052 0 0.104-0.001 0.156s-0.003 0.103-0.002 0.155c0 0.103 0.004 0.206 0.010 0.309 0.012 0.206 0.034 0.411 0.062 0.616s0.062 0.409 0.1 0.612c0.077 0.407 0.171 0.81 0.277 1.21 0.053 0.2 0.11 0.399 0.171 0.597s0.124 0.395 0.195 0.589c0.071 0.194 0.147 0.387 0.239 0.571 0.023 0.046 0.047 0.091 0.074 0.134 0.006 0.011 0.014 0.021 0.020 0.032s0.013 0.019 0.021 0.029c0.008 0.010 0.015 0.019 0.024 0.029l0.025 0.030c0.067 0.080 0.131 0.164 0.189 0.253s0.106 0.184 0.146 0.283c0.039 0.099 0.069 0.201 0.091 0.304s0.038 0.207 0.050 0.311c0.012 0.104 0.020 0.208 0.026 0.313l0.016 0.31c0.006 0.103 0.013 0.206 0.018 0.311 0.001 0.026 0.002 0.053 0.001 0.081s-0.002 0.056-0.009 0.087c-0.004 0.016-0.009 0.032-0.019 0.049s-0.023 0.032-0.037 0.043c-0.029 0.023-0.058 0.032-0.084 0.042-0.052 0.018-0.1 0.031-0.148 0.048l-0.036 0.013-0.036 0.014c-0.022 0.009-0.043 0.019-0.064 0.030-0.082 0.046-0.147 0.118-0.19 0.203s-0.063 0.183-0.065 0.28c-0.001 0.048 0.003 0.097 0.013 0.143 0.005 0.023 0.011 0.045 0.020 0.065 0.004 0.010 0.009 0.019 0.014 0.026 0.003 0.004 0.012 0.014 0.017 0.019s0.012 0.008 0.015 0.009c0.003 0.001 0.003 0.001 0.006-0.001 0.007-0.002 0.022-0.017 0.032-0.035 0.023-0.037 0.040-0.084 0.054-0.131s0.025-0.097 0.035-0.147l0.007-0.037 0.007-0.039c0.005-0.028 0.014-0.056 0.025-0.083 0.022-0.054 0.054-0.103 0.092-0.145s0.081-0.078 0.128-0.108c0.023-0.015 0.047-0.029 0.071-0.042l0.035-0.018c0.065 0.174 0.009 0.050 0.009 0.092l-0.038 0.008c-0.013 0.003-0.026 0.005-0.036 0.008-0.021 0.005-0.040 0.014-0.059 0.024-0.037 0.022-0.070 0.055-0.097 0.093s-0.049 0.081-0.067 0.127c-0.035 0.091-0.056 0.19-0.062 0.288-0.003 0.049-0.002 0.099 0.006 0.143 0.002 0.013 0.004 0.021 0.008 0.030s0.007 0.016 0.012 0.023c0.010 0.013 0.022 0.022 0.040 0.029s0.039 0.011 0.062 0.012c0.023 0.002 0.047 0.001 0.072-0 0.049-0.003 0.101-0.009 0.154-0.013 0.027-0.002 0.053-0.004 0.082-0.004s0.047 0.002 0.065-0.003c0.017-0.005 0.031-0.012 0.043-0.025s0.023-0.030 0.031-0.051c0.016-0.041 0.025-0.090 0.031-0.139s0.008-0.1 0.010-0.151c0.002-0.051 0.002-0.102 0.003-0.154l0-0.077c-0-0.025-0.001-0.050-0.003-0.073-0.001-0.012-0.003-0.023-0.004-0.034s-0.006-0.021-0.006-0.020c-0.005 0.014 0.063 0.009 0.043 0.007-0.003 0.003-0.008 0.012-0.013 0.021-0.019 0.040-0.032 0.089-0.042 0.137-0.019 0.097-0.027 0.198-0.018 0.295 0.001 0.012 0.003 0.024 0.004 0.036s0.004 0.023 0.006 0.037c0.005 0.026 0.009 0.053 0.012 0.079s0.006 0.053 0.008 0.080l0.003 0.039c-0.002 0.008 0.010 0.033-0.005 0.008-0.042-0.020-0.015-0.006-0.007-0.013 0.012-0.003 0.026-0.006 0.039-0.009 0.027-0.005 0.054-0.009 0.081-0.012 0.013-0.001 0.027-0.003 0.041-0.003s0.025-0.002 0.036-0.003 0.045-0.007 0.066-0.014c0.042-0.014 0.075-0.038 0.099-0.073s0.039-0.080 0.049-0.127c0.020-0.095 0.023-0.198 0.025-0.3l0.001-0.077c0-0.026 0-0.052-0-0.077s-0.001-0.051-0.002-0.077l-0.003-0.077c-0.002-0.051-0.006-0.103-0.009-0.154l-0.011-0.155c-0.016-0.206-0.034-0.413-0.052-0.619-0.037-0.413-0.076-0.826-0.11-1.239l-0.012-0.155-0.011-0.155c-0.007-0.105-0.009-0.209-0.012-0.313s-0.004-0.205-0.033-0.295c-0.029-0.091-0.087-0.172-0.152-0.25s-0.138-0.151-0.211-0.223c-0.074-0.072-0.149-0.143-0.224-0.214l-0.228-0.211c-0.076-0.070-0.153-0.139-0.228-0.213-0.299-0.294-0.546-0.638-0.741-1.009s-0.337-0.766-0.441-1.17c-0.104-0.404-0.17-0.816-0.212-1.23-0.021-0.207-0.035-0.415-0.044-0.622-0.005-0.104-0.008-0.208-0.010-0.312s-0.004-0.207-0.009-0.31c-0.010-0.206-0.029-0.412-0.064-0.614-0.018-0.101-0.040-0.201-0.069-0.299s-0.066-0.193-0.116-0.279c-0.050-0.086-0.115-0.164-0.2-0.206-0.042-0.021-0.088-0.032-0.135-0.033s-0.095 0.008-0.142 0.023c-0.093 0.031-0.18 0.084-0.26 0.146s-0.156 0.131-0.227 0.205c-0.143 0.147-0.271 0.309-0.393 0.475-0.061 0.083-0.12 0.168-0.177 0.254-0.029 0.043-0.057 0.086-0.085 0.129s-0.055 0.087-0.082 0.131-0.101 0.179-0.147 0.271c-0.044 0.093-0.085 0.187-0.12 0.283-0.070 0.193-0.121 0.392-0.144 0.596s-0.022 0.409 0.005 0.612c0.028 0.203 0.081 0.402 0.154 0.594 0.146 0.384 0.369 0.736 0.624 1.060 0.128 0.162 0.264 0.318 0.404 0.469s0.286 0.299 0.43 0.448c0.288 0.299 0.569 0.605 0.84 0.92 0.135 0.158 0.268 0.318 0.393 0.484 0.063 0.083 0.124 0.168 0.18 0.256 0.028 0.044 0.055 0.090 0.077 0.139 0.011 0.025 0.021 0.050 0.027 0.080 0.003 0.017 0.003 0.029 0.004 0.043l0.001 0.039c0.003 0.208-0.006 0.416-0.025 0.624-0.010 0.104-0.023 0.207-0.042 0.31s-0.043 0.205-0.079 0.305c-0.018 0.050-0.040 0.099-0.067 0.145-0.014 0.023-0.029 0.046-0.047 0.067-0.009 0.011-0.018 0.021-0.029 0.031-0.010 0.009-0.020 0.018-0.031 0.026-0.083 0.066-0.173 0.121-0.264 0.171s-0.186 0.094-0.273 0.146c-0.043 0.026-0.085 0.055-0.119 0.089-0.017 0.017-0.032 0.036-0.044 0.056-0.011 0.019-0.023 0.044-0.026 0.063-0.002 0.011 0.002 0.011-0.005 0.006-0.003 0 0.010-0 0.019-0.004 0.021-0.007 0.043-0.020 0.064-0.032 0.042-0.026 0.083-0.057 0.123-0.089 0.079-0.065 0.154-0.135 0.223-0.21 0.017-0.019 0.034-0.038 0.051-0.058s0.034-0.040 0.048-0.058c0.081 0.059 0.010 0.027 0.020 0.049l-0.026 0.028c-0.017 0.019-0.035 0.038-0.052 0.057-0.068 0.077-0.135 0.156-0.196 0.238l-0.022 0.031c-0.008 0.011-0.015 0.021-0.023 0.032-0.016 0.021-0.032 0.042-0.049 0.062l-0.050 0.059c-0.007 0.009-0.016 0.020-0.017 0.024 0.002-0.006-0.011-0.016 0.004-0.008 0.020 0.006 0.047 0.009 0.072 0.013l0.077 0.010c0.051 0.006 0.101 0.010 0.152 0.010 0.1 0 0.202-0.016 0.287-0.064 0.042-0.024 0.080-0.056 0.11-0.093s0.053-0.081 0.074-0.128c0.010-0.024 0.021-0.047 0.030-0.071 0.005-0.012 0.010-0.024 0.014-0.035-0.035-0.033 0.061 0.006 0.044 0.012-0.013 0.019-0.027 0.042-0.040 0.063l-0.039 0.067-0.039 0.067-0.019 0.034c-0.006 0.011-0.012 0.022-0.017 0.032-0.021 0.043-0.035 0.091-0.027 0.133 0.004 0.021 0.013 0.039 0.027 0.054s0.033 0.026 0.055 0.034c0.043 0.016 0.093 0.019 0.142 0.017 0.015-0 0.019-0.002 0.030-0.005 0.009-0.003 0.019-0.008 0.028-0.014 0.019-0.012 0.037-0.028 0.054-0.046 0.034-0.036 0.063-0.077 0.090-0.119 0.054-0.086 0.101-0.177 0.142-0.271s0.079-0.19 0.112-0.287c0.067-0.195 0.12-0.394 0.155-0.596 0.009-0.051 0.016-0.101 0.022-0.152s0.009-0.101 0.013-0.154c0.008-0.104 0.022-0.208 0.033-0.31s0.016-0.202-0.015-0.294c-0.029-0.092-0.086-0.176-0.148-0.257-0.063-0.080-0.131-0.157-0.201-0.233s-0.142-0.15-0.214-0.224c-0.071-0.076-0.144-0.151-0.213-0.229l-0.104-0.116-0.103-0.117c-0.273-0.313-0.54-0.631-0.805-0.95-0.53-0.638-1.053-1.281-1.583-1.917-0.265-0.319-0.533-0.634-0.804-0.947l-0.204-0.233c-0.067-0.073-0.143-0.139-0.226-0.196-0.165-0.114-0.354-0.195-0.549-0.252s-0.399-0.092-0.603-0.111c-0.205-0.019-0.411-0.024-0.617-0.019-0.413 0.011-0.824 0.063-1.231 0.138s-0.809 0.177-1.204 0.301c-0.198 0.061-0.393 0.129-0.587 0.202s-0.385 0.154-0.571 0.243c-0.093 0.045-0.185 0.092-0.275 0.143s-0.178 0.105-0.261 0.164c-0.042 0.030-0.082 0.061-0.12 0.094s-0.074 0.069-0.103 0.107c-0.014 0.019-0.027 0.040-0.035 0.060s-0.011 0.040-0.007 0.056c0.003 0.009 0.004 0.013 0.010 0.023 0.006 0.008 0.012 0.016 0.020 0.022 0.015 0.014 0.034 0.024 0.055 0.033 0.042 0.017 0.090 0.025 0.139 0.029s0.099 0.003 0.149 0.001c0.1-0.006 0.201-0.021 0.301-0.040 0.2-0.038 0.398-0.094 0.594-0.155 0.391-0.125 0.775-0.277 1.148-0.45s0.737-0.369 1.085-0.589c0.347-0.22 0.68-0.466 0.974-0.754 0.146-0.144 0.283-0.299 0.399-0.468 0.058-0.084 0.111-0.172 0.157-0.264 0.023-0.045 0.044-0.092 0.065-0.14 0.010-0.024 0.021-0.047 0.032-0.071s0.022-0.047 0.033-0.071c0.090-0.188 0.19-0.371 0.303-0.546s0.238-0.342 0.377-0.497c0.14-0.154 0.294-0.297 0.466-0.416s0.359-0.218 0.56-0.278c0.201-0.060 0.416-0.081 0.625-0.047 0.209 0.032 0.41 0.12 0.579 0.246 0.043 0.032 0.084 0.063 0.124 0.101 0.010 0.010 0.020 0.019 0.030 0.033 0.013-0.007 0.028 0.075-0.022 0.082-0.024 0.004-0.036 0.001-0.051-0s-0.028-0.005-0.041-0.008c-0.052-0.012-0.102-0.027-0.152-0.042s-0.099-0.031-0.149-0.047c-0.197-0.065-0.394-0.13-0.591-0.193-0.394-0.125-0.792-0.239-1.195-0.328s-0.81-0.155-1.22-0.167c-0.204-0.006-0.409 0.003-0.609 0.034-0.050 0.008-0.099 0.017-0.149 0.028-0.051 0.011-0.102 0.022-0.154 0.032-0.103 0.020-0.206 0.037-0.309 0.052-0.207 0.030-0.415 0.050-0.624 0.062s-0.417 0.016-0.626 0.012c-0.417-0.009-0.834-0.046-1.246-0.116-0.206-0.035-0.41-0.078-0.613-0.133s-0.402-0.12-0.594-0.21c-0.096-0.046-0.19-0.097-0.276-0.17-0.041-0.036-0.079-0.074-0.114-0.118-0.017-0.022-0.034-0.045-0.048-0.071s-0.027-0.053-0.034-0.085c-0.007-0.031-0.009-0.069 0.007-0.107 0.008-0.019 0.021-0.036 0.037-0.048s0.033-0.021 0.050-0.027c0.034-0.011 0.066-0.011 0.096-0.009s0.058 0.009 0.086 0.017c0.108 0.033 0.201 0.091 0.287 0.153s0.165 0.135 0.239 0.21c0.074 0.075 0.143 0.155 0.208 0.238 0.068 0.089 0.11 0.193 0.136 0.297s0.039 0.211 0.044 0.316c0.009 0.212-0.009 0.421-0.037 0.628s-0.069 0.412-0.116 0.615c-0.094 0.406-0.211 0.805-0.338 1.201s-0.263 0.788-0.401 1.179c-0.069 0.196-0.138 0.391-0.202 0.587-0.032 0.098-0.063 0.197-0.085 0.294-0.020 0.1-0.039 0.2-0.048 0.301-0.011 0.101-0.015 0.202-0.015 0.305l0.003 0.311c0 0.209-0.012 0.42-0.037 0.627l-0.021 0.156c-0.007 0.052-0.016 0.103-0.024 0.154l-0.024 0.153c-0.008 0.051-0.014 0.102-0.021 0.153-0.025 0.204-0.044 0.41-0.062 0.616-0.034 0.412-0.061 0.826-0.087 1.239l-0.077 1.241c-0.027 0.414-0.055 0.828-0.093 1.242-0.010 0.104-0.021 0.207-0.033 0.311-0.006 0.052-0.013 0.104-0.021 0.156s-0.017 0.104-0.030 0.158c-0.003 0.013-0.007 0.027-0.011 0.043-0.005 0.018-0.008 0.024-0.015 0.042-0.011 0.027-0.024 0.053-0.039 0.077-0.030 0.050-0.067 0.096-0.11 0.135-0.086 0.079-0.191 0.13-0.299 0.159s-0.219 0.037-0.328 0.029c-0.055-0.004-0.109-0.012-0.162-0.025s-0.106-0.030-0.158-0.058c-0.024-0.013-0.055-0.033-0.076-0.064-0.011-0.015-0.019-0.034-0.022-0.053s-0.003-0.037-0.001-0.054c0.005-0.034 0.018-0.061 0.032-0.087s0.030-0.048 0.046-0.069c0.066-0.086 0.14-0.158 0.209-0.235 0.034-0.038 0.068-0.077 0.098-0.117 0.015-0.020 0.029-0.042 0.043-0.063 0.006-0.007 0.017-0.030 0.016-0.023 0.072 0.041 0.006 0.027 0.016 0.044l-0.193 0.244c-0.065 0.081-0.13 0.162-0.2 0.239-0.035 0.039-0.072 0.077-0.117 0.107-0.023 0.014-0.047 0.029-0.078 0.029-0.015 0-0.031-0.006-0.043-0.017s-0.019-0.024-0.023-0.039l0.008 0.008c-0.005-0.001-0.010-0.003-0.015-0.006s-0.009-0.008-0.012-0.013c-0.006-0.011-0.005-0.022-0.004-0.032 0.003-0.019 0.011-0.035 0.019-0.051 0.017-0.031 0.037-0.059 0.057-0.086 0.042-0.054 0.086-0.106 0.132-0.156 0.092-0.1 0.188-0.197 0.284-0.292s0.195-0.19 0.292-0.284c0.049-0.047 0.098-0.094 0.146-0.142 0.024-0.024 0.048-0.048 0.068-0.073 0.003-0.003 0.005-0.011 0.006-0.019s0.002-0.016 0.003-0.024 0.002-0.033 0.002-0.050c0.001-0.135-0.008-0.271-0.016-0.406s-0.019-0.271-0.030-0.406-0.047-0.541-0.073-0.811c-0.053-0.54-0.111-1.080-0.176-1.619-0.032-0.269-0.066-0.539-0.103-0.807-0.019-0.134-0.038-0.269-0.060-0.402-0.011-0.067-0.023-0.133-0.039-0.197s-0.038-0.127-0.063-0.189c-0.050-0.124-0.113-0.242-0.185-0.355s-0.153-0.22-0.243-0.319c-0.090-0.098-0.188-0.19-0.299-0.259-0.055-0.034-0.114-0.062-0.173-0.073-0.059-0.012-0.116-0.001-0.156 0.036-0.019 0.017-0.039 0.047-0.060 0.073s-0.040 0.054-0.060 0.081c-0.040 0.054-0.079 0.11-0.118 0.165l-0.233 0.334c-0.155 0.223-0.31 0.446-0.468 0.667s-0.317 0.442-0.48 0.66l-0.124 0.162c-0.042 0.054-0.084 0.107-0.126 0.161s-0.086 0.106-0.13 0.159l-0.033 0.040-0.1 0.115-0.067 0.077c-0.022 0.025-0.044 0.051-0.066 0.076-0.043 0.052-0.085 0.103-0.125 0.157-0.079 0.107-0.151 0.218-0.189 0.338-0.018 0.060-0.028 0.122-0.029 0.186s0.004 0.13 0.009 0.198c0.006 0.067 0.011 0.136 0.014 0.205s0.004 0.138 0.003 0.207l-0-0.006c0.009 0.088 0.021 0.177 0.035 0.264s0.032 0.175 0.057 0.257c0.006 0.020 0.013 0.040 0.021 0.059 0.004 0.009 0.008 0.018 0.013 0.027s0.010 0.017 0.013 0.022c0.001 0.001 0.001 0.001 0.002 0.002l0.003 0.003 0.002 0.002 0.003 0.003 0.010 0.011c0.007 0.007 0.014 0.014 0.021 0.019s0.013 0.009 0.014 0.009c0 0-0.002-0.001-0.008 0s-0.011 0.006-0.012 0.007c-0.001 0.003 0.002-0.004 0.004-0.011s0.003-0.017 0.004-0.027 0.002-0.041 0.001-0.063-0.005-0.087-0.009-0.131c-0.008-0.086-0.026-0.173-0.054-0.254-0.007-0.020-0.015-0.040-0.024-0.058-0.004-0.009-0.009-0.018-0.013-0.022-0.001-0.001-0.001-0.002-0.001-0.001s0.001 0.001 0.001 0.001 0.002 0.001 0.004 0.002 0.011 0.006 0.026 0.002c0.014-0.004 0.020-0.015 0.021-0.017s0.001-0.003 0.002-0.004l0-0.002c0-0.002 0-0-0 0.001 0.001 0.031 0.015 0.080 0.025 0.122 0.021 0.087 0.045 0.172 0.075 0.255s0.065 0.164 0.114 0.233c0.025 0.034 0.053 0.065 0.086 0.085 0.016 0.010 0.034 0.017 0.052 0.020 0.009 0.002 0.018 0.002 0.027 0.002s0.019-0.002 0.027-0.003c0.079-0.017 0.143-0.078 0.19-0.149s0.080-0.154 0.099-0.239c0.019-0.085 0.025-0.173 0.016-0.26s-0.036-0.171-0.083-0.243c-0.025-0.038-0.049-0.077-0.070-0.118-0.011-0.021-0.021-0.042-0.029-0.065s-0.013-0.051-0.007-0.079c0.007-0.028 0.022-0.048 0.032-0.066s0.019-0.037 0.024-0.057c0.011-0.039 0.015-0.084 0.014-0.127s-0.008-0.086-0.022-0.126c-0.006-0.020-0.015-0.040-0.025-0.058-0.005-0.009-0.010-0.018-0.016-0.027s-0.013-0.017-0.018-0.023l-0.006-0.006-0.001-0.007c-0.006-0.051 0.010-0.098 0.030-0.138s0.046-0.078 0.073-0.113c0.054-0.070 0.116-0.133 0.179-0.194 0.127-0.121 0.261-0.231 0.397-0.34 0.273-0.216 0.553-0.421 0.828-0.632 0.137-0.106 0.274-0.212 0.404-0.324 0.065-0.056 0.129-0.114 0.188-0.174l0.022-0.023 0.021-0.023 0.043-0.049 0.085-0.098c0.056-0.065 0.111-0.131 0.162-0.199s0.096-0.138 0.126-0.212c0.031-0.074 0.045-0.151 0.037-0.228s-0.035-0.154-0.072-0.226c-0.076-0.146-0.186-0.278-0.298-0.408-0.056-0.065-0.114-0.125-0.177-0.185-0.031-0.030-0.064-0.063-0.094-0.099s-0.056-0.073-0.080-0.111c-0.095-0.151-0.174-0.305-0.254-0.46s-0.156-0.31-0.233-0.466l-0.114-0.234-0.028-0.059-0.028-0.060c-0.010-0.020-0.018-0.040-0.026-0.061s-0.017-0.040-0.025-0.061c-0.033-0.082-0.060-0.166-0.083-0.25-0.012-0.042-0.022-0.085-0.031-0.128-0.008-0.043-0.017-0.086-0.024-0.13-0.013-0.087-0.022-0.174-0.026-0.261s-0.003-0.175 0.002-0.262c0.010-0.174 0.038-0.347 0.078-0.517s0.094-0.335 0.155-0.498c0.061-0.163 0.131-0.322 0.205-0.479 0.148-0.314 0.314-0.619 0.466-0.931 0.076-0.156 0.149-0.314 0.209-0.476 0.030-0.081 0.057-0.164 0.079-0.248s0.036-0.169 0.042-0.256c0.012-0.173-0.008-0.347-0.052-0.514s-0.112-0.328-0.198-0.478c-0.086-0.15-0.191-0.289-0.316-0.409-0.062-0.060-0.129-0.114-0.203-0.159s-0.153-0.079-0.236-0.087c-0.041-0.003-0.083 0.001-0.12 0.017s-0.069 0.042-0.093 0.075c-0.025 0.033-0.042 0.071-0.055 0.11-0.003 0.010-0.006 0.020-0.009 0.030l-0.009 0.032c-0.003 0.011-0.007 0.021-0.010 0.032s-0.008 0.021-0.012 0.031c-0.034 0.083-0.086 0.159-0.153 0.22s-0.146 0.107-0.229 0.139c-0.084 0.032-0.172 0.052-0.26 0.061s-0.178 0.009-0.266 0.001c-0.176-0.016-0.35-0.061-0.513-0.131-0.081-0.035-0.16-0.077-0.234-0.127s-0.144-0.107-0.204-0.173c-0.030-0.033-0.059-0.068-0.084-0.106-0.012-0.018-0.025-0.039-0.036-0.058l-0.015-0.029-0.015-0.028c-0.039-0.076-0.084-0.149-0.134-0.217s-0.107-0.133-0.171-0.188c-0.032-0.028-0.066-0.053-0.102-0.074-0.018-0.010-0.037-0.020-0.055-0.025-0.009-0.003-0.019-0.004-0.022-0.004-0.002 0.001 0.004-0.003 0.004-0.006-0-0.002 0 0.002 0.002 0.005 0.007 0.014 0.023 0.030 0.038 0.044s0.032 0.027 0.049 0.040 0.071 0.048 0.107 0.071 0.149 0.088 0.226 0.126c0.039 0.019 0.078 0.036 0.118 0.051 0.020 0.007 0.040 0.013 0.061 0.018s0.041 0.007 0.060 0.005c0.009-0.001 0.018-0.004 0.024-0.008s0.010-0.011 0.012-0.019c0.004-0.017-0-0.037-0.006-0.057s-0.015-0.039-0.024-0.058c-0.009-0.019-0.020-0.035-0.034-0.049-0.029-0.028-0.067-0.047-0.106-0.061s-0.082-0.022-0.124-0.029c-0.085-0.013-0.171-0.020-0.258-0.027s-0.173-0.015-0.26-0.029c-0.087-0.014-0.173-0.035-0.256-0.071-0.041-0.018-0.081-0.041-0.117-0.068s-0.069-0.055-0.102-0.084c-0.066-0.058-0.127-0.124-0.18-0.195-0.027-0.035-0.052-0.071-0.079-0.1-0.014-0.014-0.028-0.026-0.043-0.035s-0.034-0.015-0.051-0.018l-0.015-0.003-0.017-0.002c-0.011-0.002-0.022-0.004-0.033-0.006-0.022-0.005-0.045-0.010-0.069-0.020-0.012-0.005-0.024-0.012-0.036-0.022s-0.022-0.023-0.028-0.036c-0.013-0.028-0.015-0.054-0.016-0.077s-0-0.045 0-0.067c0-0.011 0-0.022 0.001-0.034 0-0.006 0.001-0.012 0.002-0.018 0.021 0.013-0.049-0.051 0.073-0.017 0.004 0.013 0.004 0.017 0.005 0.024s0.001 0.012 0.002 0.018 0.001 0.023 0.001 0.034 0 0.045-0.001 0.067c-0.004 0.089-0.015 0.178-0.036 0.265-0.009 0.039-0.012 0.077-0.006 0.114 0.002 0.019 0.008 0.037 0.014 0.055 0.007 0.018 0.014 0.036 0.025 0.052 0.039 0.068 0.099 0.127 0.164 0.179s0.137 0.098 0.211 0.141c0.074 0.043 0.15 0.082 0.227 0.119s0.156 0.071 0.236 0.111c0.079 0.040 0.157 0.086 0.229 0.139 0.146 0.105 0.27 0.24 0.37 0.387s0.181 0.306 0.252 0.467c0.071 0.161 0.132 0.325 0.19 0.49s0.111 0.33 0.163 0.497l0.076 0.248c0.026 0.081 0.055 0.161 0.086 0.241 0.125 0.318 0.287 0.622 0.458 0.921s0.356 0.593 0.531 0.895c0.087 0.151 0.172 0.304 0.249 0.462s0.146 0.322 0.195 0.493c0.025 0.086 0.044 0.174 0.056 0.263s0.015 0.181 0.005 0.271c-0.002 0.022-0.006 0.046-0.009 0.069s-0.008 0.042-0.013 0.065-0.019 0.084-0.025 0.125c-0.002 0.010-0.003 0.021-0.003 0.026 0.018 0.028-0.016-0.047-0.061-0.020-0.004 0.005 0-0 0.002-0.003 0.009-0.015 0.019-0.035 0.028-0.054 0.018-0.038 0.036-0.078 0.053-0.118 0.274-0.637 0.546-1.278 0.879-1.889 0.166-0.305 0.346-0.603 0.553-0.884 0.103-0.14 0.213-0.276 0.333-0.403 0.060-0.064 0.123-0.124 0.186-0.184s0.127-0.119 0.193-0.176c0.066-0.057 0.133-0.113 0.203-0.166 0.035-0.026 0.071-0.052 0.108-0.076s0.076-0.046 0.12-0.064c0.011-0.004 0.022-0.008 0.035-0.011s0.026-0.005 0.044-0.002c0.009 0.002 0.021 0.006 0.030 0.017s0.012 0.024 0.012 0.034c-0 0.020-0.007 0.033-0.013 0.045-0.013 0.023-0.028 0.042-0.045 0.058s-0.035 0.031-0.055 0.045c-0.077 0.052-0.172 0.080-0.267 0.071-0.047-0.005-0.093-0.018-0.135-0.039-0.021-0.010-0.041-0.022-0.060-0.035-0.019-0.013-0.036-0.027-0.053-0.040-0.070-0.055-0.134-0.115-0.195-0.179-0.121-0.128-0.226-0.269-0.323-0.414s-0.186-0.296-0.272-0.447l-0.128-0.226c-0.043-0.075-0.086-0.15-0.133-0.221-0.024-0.036-0.049-0.072-0.072-0.109s-0.046-0.075-0.067-0.113-0.084-0.15-0.147-0.2c-0.063-0.051-0.142-0.084-0.222-0.114-0.040-0.015-0.081-0.028-0.122-0.041-0.020-0.006-0.042-0.013-0.063-0.021s-0.042-0.016-0.062-0.027c-0.081-0.040-0.154-0.104-0.198-0.185s-0.062-0.171-0.071-0.258c-0.008-0.088-0.007-0.175-0.007-0.262s-0.002-0.173-0.016-0.256c-0.004-0.021-0.008-0.042-0.013-0.062-0.003-0.010-0.006-0.020-0.009-0.029-0.002-0.004-0.004-0.009-0.005-0.011-0.010 0.006 0.036-0.004 0.022-0.004-0.001 0.006-0.001 0.017 0 0.027s0.003 0.020 0.005 0.030 0.011 0.040 0.018 0.060c0.030 0.078 0.083 0.148 0.157 0.186s0.162 0.041 0.244 0.023c0.021-0.004 0.041-0.010 0.062-0.016s0.042-0.012 0.064-0.016c0.043-0.009 0.087-0.016 0.132-0.015s0.091 0.010 0.13 0.034c0.040 0.024 0.069 0.061 0.089 0.101s0.032 0.083 0.043 0.125c0.010 0.043 0.018 0.085 0.027 0.128 0.017 0.084 0.036 0.17 0.078 0.243 0.011 0.018 0.023 0.036 0.036 0.053s0.027 0.033 0.043 0.044c0.008 0.005 0.017 0.010 0.024 0.010s0.013-0.004 0.018-0.012c0.009-0.016 0.011-0.038 0.012-0.058 0.001-0.042-0.007-0.085-0.016-0.126s-0.023-0.083-0.038-0.123c-0.015-0.040-0.032-0.080-0.051-0.119s-0.039-0.077-0.063-0.112c-0.024-0.035-0.053-0.066-0.089-0.088s-0.077-0.032-0.118-0.027c-0.041 0.005-0.080 0.023-0.114 0.047s-0.063 0.056-0.087 0.091c-0.024 0.035-0.042 0.074-0.054 0.114s-0.015 0.083-0.007 0.123c0.009 0.040 0.028 0.079 0.054 0.111s0.059 0.058 0.096 0.079c0.037 0.021 0.077 0.038 0.115 0.061s0.075 0.054 0.096 0.096c0.005 0.010 0.010 0.022 0.014 0.032l0.005 0.016 0.004 0.016 0.017 0.063c0.011 0.042 0.023 0.083 0.040 0.121s0.039 0.074 0.068 0.102c0.029 0.029 0.064 0.051 0.102 0.069 0.019 0.009 0.039 0.016 0.058 0.023s0.040 0.013 0.061 0.018 0.083 0.017 0.126 0.024c0.043 0.007 0.086 0.012 0.131 0.024 0.022 0.006 0.045 0.015 0.067 0.028s0.040 0.032 0.054 0.053c0.014 0.021 0.023 0.044 0.030 0.067s0.011 0.046 0.013 0.069c0.002 0.012 0.002 0.022 0.003 0.033 0.001 0.012 0.001 0.023 0.001 0.035s-0 0.024-0.004 0.039c-0.005 0.007 0.003 0.021-0.032 0.037-0.039 0.001-0.038-0.015-0.045-0.019-0.010-0.012-0.016-0.023-0.021-0.034s-0.010-0.021-0.015-0.031-0.017-0.042-0.025-0.062-0.029-0.084-0.042-0.126-0.047-0.17-0.063-0.257c-0.008-0.044-0.015-0.088-0.018-0.134-0.002-0.023-0.002-0.047-0-0.070s0.003-0.044 0.005-0.066c0.007-0.086 0.013-0.172 0.015-0.257 0.003-0.17-0.009-0.34-0.054-0.5-0.022-0.080-0.053-0.156-0.093-0.226s-0.091-0.132-0.151-0.184c-0.12-0.104-0.276-0.162-0.438-0.185s-0.332-0.015-0.5 0.008l-0.066 0.008c-0.023 0.003-0.046 0.004-0.069 0.005-0.046 0.001-0.093 0.001-0.139-0.004-0.093-0.009-0.183-0.032-0.268-0.065-0.171-0.065-0.32-0.162-0.467-0.25-0.074-0.045-0.148-0.087-0.224-0.124-0.038-0.019-0.077-0.034-0.116-0.049l-0.031-0.011c-0.009-0.003-0.019-0.006-0.029-0.009-0.020-0.005-0.040-0.010-0.060-0.013-0.081-0.013-0.165-0.007-0.243 0.022s-0.151 0.077-0.203 0.142c-0.006 0.008-0.012 0.017-0.017 0.025s-0.009 0.018-0.010 0.025c-0 0.004 0 0.003-0.001 0.003-0 0 0.004 0 0.008-0.001 0.009-0.003 0.018-0.008 0.026-0.014 0.035-0.026 0.077-0.047 0.12-0.056s0.088-0.008 0.131 0.001c0.043 0.009 0.084 0.026 0.122 0.047s0.074 0.047 0.106 0.077c0.016 0.015 0.030 0.032 0.045 0.048 0.007 0.008 0.014 0.017 0.021 0.026s0.014 0.018 0.018 0.032c0.002 0.007 0.002 0.017-0.003 0.024s-0.010 0.012-0.016 0.016-0.022 0.013-0.032 0.017-0.042 0.019-0.062 0.028c-0.021 0.009-0.040 0.018-0.062 0.026-0.011 0.004-0.022 0.009-0.033 0.012s-0.022 0.008-0.034 0.011c-0.046 0.013-0.098 0.016-0.151 0.005-0.052-0.010-0.102-0.034-0.143-0.061-0.043-0.029-0.074-0.058-0.107-0.085-0.029 0.015 0.149-0.219 0.082-0.114l0.013 0.008c0.009 0.005 0.017 0.011 0.026 0.016 0.018 0.010 0.035 0.020 0.054 0.030 0.036 0.019 0.074 0.037 0.113 0.052 0.019 0.008 0.038 0.014 0.056 0.020 0.009 0.002 0.017 0.004 0.025 0.005s0.014 0.001 0.023-0c0.017-0.002 0.043-0.010 0.066-0.012s0.047-0.003 0.070-0.002c0.012 0 0.022 0.001 0.033 0.002l0.017 0.001 0.017 0.002c0.023 0.003 0.046 0.008 0.068 0.014 0.044 0.013 0.086 0.036 0.122 0.064s0.066 0.061 0.093 0.097c0.027 0.036 0.049 0.073 0.071 0.111 0.010 0.019 0.022 0.037 0.030 0.060 0.008 0.011-0.027 0.020-0.020 0.008-0.004-0.005-0.007-0.009-0.010-0.014-0.006-0.009-0.012-0.019-0.017-0.028-0.043-0.076-0.079-0.155-0.114-0.235s-0.068-0.16-0.1-0.24c-0.017-0.040-0.037-0.078-0.063-0.111s-0.058-0.063-0.095-0.083c-0.037-0.020-0.078-0.031-0.12-0.034s-0.084 0.003-0.125 0.014c-0.082 0.022-0.158 0.064-0.226 0.114-0.034 0.025-0.067 0.053-0.096 0.083-0.014 0.015-0.028 0.031-0.039 0.047-0.005 0.008-0.011 0.018-0.016 0.027-0.002 0.004-0.005 0.009-0.007 0.012-0.001-0.040-0.065-0.017-0.033-0.029 0.010-0.015 0.020-0.035 0.023-0.049 0.001-0.003-0-0.006 0-0.003s0.007 0.008 0.007 0.007c0 0-0.003 0-0.006 0.001s-0.008 0.002-0.012 0.004-0.017 0.007-0.028 0.012c-0.011 0.005-0.022 0.009-0.034 0.013-0.022 0.007-0.045 0.012-0.067 0.016-0.090 0.014-0.178 0.014-0.266 0.009-0.176-0.011-0.35-0.044-0.519-0.1-0.042-0.014-0.083-0.031-0.125-0.049-0.011-0.005-0.021-0.009-0.030-0.014l-0.029-0.014c-0.018-0.009-0.036-0.017-0.054-0.023-0.036-0.013-0.071-0.019-0.101-0.007s-0.061 0.043-0.088 0.076c-0.028 0.033-0.055 0.070-0.093 0.097-0.019 0.013-0.040 0.024-0.062 0.030s-0.046 0.008-0.068 0.008c-0.043-0.001-0.087-0.002-0.129 0.002-0.021 0.002-0.042 0.005-0.058 0.014s-0.026 0.025-0.032 0.045c-0.013 0.040-0.020 0.083-0.033 0.125-0.003 0.011-0.006 0.021-0.010 0.032-0.002 0.005-0.004 0.011-0.006 0.016s-0.004 0.011-0.012 0.018c-0.022 0.014-0.032-0.014-0.031-0.014-0.002-0.006-0.003-0.012-0.004-0.018-0.002-0.011-0.003-0.022-0.004-0.033-0.006-0.087-0.007-0.174-0.014-0.26-0.002-0.021-0.004-0.043-0.006-0.064l-0.002-0.016c0.013-0.004-0.032-0.012 0.028-0.009 0.001-0.003-0.001 0.006-0 0.010l-0.001 0.016c-0.001 0.043 0 0.086 0.001 0.129l0.004 0.13c0 0.022 0.003 0.042 0.001 0.067-0 0.006-0.001 0.013-0.003 0.020-0.003 0.004-0.002 0.025-0.033 0.028-0.022-0.005-0.023-0.013-0.028-0.019-0.004-0.006-0.008-0.011-0.011-0.017-0.022-0.043-0.033-0.086-0.043-0.13s-0.014-0.089-0.014-0.134c0-0.045 0.005-0.092 0.020-0.136s0.042-0.089 0.084-0.117c0.041-0.029 0.087-0.042 0.132-0.049s0.091-0.008 0.136-0.005c0.089 0.006 0.177 0.028 0.259 0.063 0.020 0.009 0.041 0.019 0.060 0.031 0.010 0.006 0.019 0.013 0.028 0.020s0.018 0.016 0.024 0.030c0.003 0.007 0.005 0.016 0.002 0.024s-0.008 0.015-0.014 0.019c-0.005 0.004-0.011 0.007-0.017 0.009l-0.015 0.006c-0.020 0.008-0.041 0.016-0.061 0.023-0.041 0.015-0.084 0.026-0.128 0.030s-0.088 0.003-0.131-0.004c-0.087-0.014-0.168-0.049-0.244-0.092s-0.146-0.095-0.214-0.15c-0.134-0.111-0.255-0.238-0.369-0.368-0.057-0.064-0.121-0.122-0.191-0.171s-0.146-0.088-0.225-0.119c-0.159-0.062-0.332-0.091-0.496-0.156-0.082-0.032-0.162-0.073-0.234-0.124s-0.139-0.111-0.198-0.176c-0.119-0.131-0.212-0.281-0.293-0.436-0.040-0.078-0.077-0.157-0.112-0.236s-0.067-0.161-0.098-0.242c-0.061-0.163-0.115-0.328-0.165-0.495-0.025-0.083-0.048-0.167-0.074-0.249s-0.056-0.163-0.090-0.242c-0.034-0.079-0.072-0.156-0.115-0.23s-0.094-0.143-0.152-0.205c-0.058-0.061-0.126-0.114-0.202-0.15s-0.159-0.055-0.244-0.056c-0.084-0.001-0.169 0.014-0.25 0.040s-0.16 0.060-0.236 0.1c-0.152 0.080-0.294 0.181-0.43 0.287-0.272 0.214-0.524 0.454-0.779 0.688-0.128 0.117-0.256 0.234-0.391 0.344-0.067 0.055-0.136 0.108-0.208 0.157s-0.147 0.094-0.227 0.129l-0.002-0.006z"></path>
<path fill="#000" style="fill: var(--color5, #000)" d="M6.933 26.008c0 0 0.039-0.004 0.112-0.012s0.18-0.022 0.316-0.044c0.068-0.011 0.142-0.025 0.222-0.044 0.040-0.010 0.081-0.021 0.123-0.034s0.085-0.030 0.121-0.056c0.009-0.006 0.017-0.013 0.023-0.021s0.009-0.016 0.009-0.022c0-0.013-0.014-0.032-0.032-0.045-0.037-0.028-0.085-0.047-0.135-0.062-0.1-0.030-0.211-0.044-0.327-0.048s-0.237 0.005-0.361 0.024c-0.124 0.019-0.25 0.049-0.376 0.091s-0.253 0.095-0.377 0.159c-0.062 0.032-0.124 0.067-0.184 0.104-0.030 0.019-0.061 0.038-0.091 0.058s-0.060 0.040-0.090 0.061c-0.24 0.167-0.477 0.358-0.728 0.541s-0.511 0.363-0.792 0.513c-0.281 0.148-0.581 0.266-0.891 0.324-0.309 0.060-0.625 0.057-0.919 0.004-0.147-0.027-0.29-0.064-0.425-0.112-0.034-0.012-0.068-0.024-0.1-0.037s-0.066-0.026-0.098-0.040c-0.016-0.007-0.032-0.014-0.048-0.020s-0.032-0.014-0.047-0.022-0.062-0.029-0.093-0.043c-0.244-0.114-0.477-0.216-0.696-0.303-0.054-0.022-0.108-0.042-0.161-0.062-0.053-0.019-0.104-0.038-0.155-0.056-0.101-0.036-0.197-0.067-0.289-0.095-0.183-0.054-0.346-0.090-0.481-0.109s-0.244-0.019-0.317-0.008c-0.036 0.005-0.064 0.013-0.081 0.020s-0.026 0.013-0.026 0.013 0.008-0.006 0.025-0.014c0.017-0.008 0.045-0.017 0.081-0.024 0.073-0.014 0.182-0.019 0.32-0.006s0.303 0.045 0.489 0.093c0.186 0.049 0.393 0.113 0.614 0.196s0.459 0.179 0.705 0.29c0.031 0.014 0.062 0.027 0.093 0.041 0.016 0.007 0.031 0.014 0.047 0.020s0.032 0.013 0.048 0.019 0.064 0.025 0.096 0.037c0.032 0.012 0.066 0.023 0.099 0.034 0.133 0.044 0.272 0.079 0.414 0.103 0.071 0.012 0.144 0.022 0.217 0.027 0.037 0.004 0.073 0.005 0.11 0.007 0.037 0.001 0.074 0.002 0.111 0.001 0.074-0.001 0.149-0.005 0.224-0.013s0.15-0.018 0.224-0.033c0.299-0.057 0.59-0.172 0.863-0.318s0.533-0.321 0.782-0.503c0.124-0.091 0.247-0.183 0.369-0.273s0.243-0.179 0.366-0.262c0.031-0.021 0.062-0.042 0.092-0.061s0.062-0.040 0.094-0.058c0.063-0.038 0.127-0.073 0.191-0.104 0.129-0.064 0.26-0.116 0.391-0.156 0.262-0.081 0.522-0.114 0.761-0.101 0.119 0.007 0.234 0.024 0.339 0.059 0.052 0.018 0.103 0.039 0.146 0.074 0.011 0.009 0.021 0.019 0.030 0.031s0.016 0.028 0.015 0.047c-0.001 0.019-0.010 0.034-0.019 0.045s-0.020 0.019-0.031 0.027c-0.044 0.028-0.089 0.042-0.132 0.056s-0.086 0.023-0.127 0.031c-0.082 0.017-0.157 0.028-0.225 0.037-0.137 0.018-0.244 0.026-0.318 0.031s-0.113 0.007-0.113 0.007z"></path>
<path fill="#000" style="fill: var(--color5, #000)" d="M25.424 26.283c-0 0 0.019-0.025 0.056-0.070s0.094-0.109 0.169-0.188c0.075-0.079 0.169-0.171 0.284-0.271s0.249-0.205 0.407-0.307c0.157-0.101 0.337-0.198 0.54-0.271 0.101-0.036 0.208-0.066 0.32-0.087s0.227-0.031 0.345-0.029c0.236 0.003 0.479 0.061 0.702 0.167 0.112 0.053 0.219 0.117 0.32 0.19 0.025 0.019 0.050 0.037 0.075 0.056l0.073 0.059c0.047 0.039 0.095 0.079 0.142 0.119 0.188 0.161 0.371 0.326 0.551 0.49s0.356 0.326 0.526 0.482c0.342 0.312 0.663 0.601 0.961 0.82 0.149 0.11 0.292 0.202 0.427 0.267s0.263 0.102 0.371 0.103c0.054 0.001 0.102-0.007 0.142-0.019s0.072-0.029 0.097-0.044c0.025-0.015 0.042-0.029 0.054-0.038s0.017-0.015 0.017-0.015-0.006 0.005-0.017 0.015c-0.011 0.010-0.029 0.024-0.053 0.039s-0.056 0.032-0.096 0.045c-0.040 0.013-0.088 0.022-0.143 0.022-0.109 0.001-0.239-0.034-0.376-0.097s-0.282-0.154-0.433-0.261c-0.302-0.216-0.629-0.5-0.976-0.806-0.173-0.153-0.352-0.312-0.534-0.473s-0.369-0.321-0.557-0.48c-0.047-0.040-0.094-0.080-0.141-0.119l-0.071-0.057c-0.024-0.019-0.049-0.036-0.073-0.054-0.099-0.071-0.202-0.133-0.31-0.184-0.216-0.102-0.449-0.158-0.676-0.161-0.113-0.002-0.225 0.008-0.333 0.028s-0.211 0.049-0.31 0.084c-0.197 0.070-0.373 0.165-0.527 0.264s-0.287 0.203-0.4 0.301c-0.113 0.098-0.206 0.189-0.28 0.267s-0.129 0.141-0.166 0.185c-0.037 0.044-0.055 0.068-0.055 0.068l-0.049-0.037z"></path>
</symbol>
<symbol id="icon-envelope" viewBox="0 0 32 32">
<path d="M29 4h-26c-1.65 0-3 1.35-3 3v20c0 1.65 1.35 3 3 3h26c1.65 0 3-1.35 3-3v-20c0-1.65-1.35-3-3-3zM12.461 17.199l-8.461 6.59v-15.676l8.461 9.086zM5.512 8h20.976l-10.488 7.875-10.488-7.875zM12.79 17.553l3.21 3.447 3.21-3.447 6.58 8.447h-19.579l6.58-8.447zM19.539 17.199l8.461-9.086v15.676l-8.461-6.59z"></path>
</symbol>
<symbol id="icon-mobile" viewBox="0 0 32 32">
<path d="M23 0h-14c-1.65 0-3 1.35-3 3v26c0 1.65 1.35 3 3 3h14c1.65 0 3-1.35 3-3v-26c0-1.65-1.35-3-3-3zM12 1.5h8v1h-8v-1zM16 30c-1.105 0-2-0.895-2-2s0.895-2 2-2 2 0.895 2 2-0.895 2-2 2zM24 24h-16v-20h16v20z"></path>
</symbol>
</defs>
</svg>
